
<svg xmlns="http://www.w3.org/2000/svg" version="1.1" xmlns:xlink="http://www.w3.org/1999/xlink" preserveAspectRatio="none" x="0px" y="0px" width="2440px" height="244px" viewBox="0 0 2440 244">
<defs>
    <g id="Layer1_0_FILL">
        <path style="fill: hsla(198.1, 27%, 39%, 1);" class="fill-work" stroke="none" d="
M 1293.7 19.05
L 1293.7 18.95 1307.25 29.3 1309.4 29.45 1339.75 9.05 1349 8.55 1357.35 17.3 1370.25 29.45 1377.4 26.25 1391.75 49.75 1396.4 48.7 1403.2 28 1410.35 31.35 1426.1 9.65 1439.7 41.6 1447.95 36.95 1461.05 56.8 1468.5 66.4 1476.3 56.65 1479.1 40 1497.7 10.25 1522.65 9.65 1527 17.5 1539.25 33.3 1544.95 16.65 1562.85 8.35 1602.95 46.05 1606.55 45.75 1610.85 30.4 1610.85 11.25 1627.3 13.45 1635.35 10.65 1657.05 58 1668.75 76.1 1677.65 61.55 1678.15 44.55 1687.45 33.45 1686.75 30.1 1707.7 11 1733.3 9.95 1760.5 15.4 1779.7 10.45 1795.6 20.5 1799.9 37.25 1816.35 69.7 1832.8 46.85 1834.6 33.45 1860 50.55 1896.55 12.05 1905.5 21.75 1925.9 33.9 1945.75 11.55 1967.45 22.25 1964.55 29.65 1986.75 51.15 2003.25 35.5 2024 34.25 2030.45 43.8 2036.9 46.05 2048.35 43.8 2074.85 81.2 2072.6 102.05 2078.85 116 2091.3 102.3 2100.8 111.45 2107.55 124.45 2109.2 110.65 2117.8 73.55 2129.25 77.35 2140.7 54.05 2136.4 37.75 2160.75 10.6 2192.25 35.2 2215.15 13.3 2219.55 19.3 2240.95 38.85 2243.8 39.05 2265.65 8.7 2295.15 35.4 2292.3 54.1 2310.9 80.75 2322.35 106.6 2319.5 123.15 2334.55 151.55 2335.6 151.55 2351 103.1 2359.95 50.35 2379.65 70.35 2402.55 41.25 2440 0 0 0 40.1 69.5 63 115 82.7 83.75 91.65 166.25 107.4 244 123.15 197.6 120.3 171.75 131.75 131.25 150.35 89.6 147.5 60.35 177 18.5 198.85 66 201.7 65.75 223.1 35.15 227.5 25.75 250.4 60 281.9 21.5 306.25 64 301.95 89.5 313.4 126 324.85 120 333.45 178.1 335.1 199.7 341.85 179.35 351.35 165 363.8 186.45 370.05 164.6 367.8 132 394.3 73.5 405.75 77 412.2 73.5 418.65 58.5 439.45 60.5 455.9 85 478.1 51.35 475.25 39.75 496.9 23 516.75 58 537.15 38.95 546.1 23.75 582.65 84 608.05 57.25 609.85 78.25 626.3 114 642.8 63.25 647.05 37 662.95 21.25 682.15 29 709.35 20.5 731 21.5 755.9 52 755.2 57.3 764.5 74.6 765 101.25 773.9 124 785.6 95.65 803.8 30.5 807.3 21.55 815.35 26 831.8 22.5 844.25 39.55 855.65 65.6 859.25 66.1 879.8 18 897.7 31 906.4 57 920 20 940.65 19.5 963.55 67.5 966.35 93.6 974.15 108.8 981.6 93.8 994.7 62.75 1002.95 70 1016.55 20 1032.3 54 1039.45 48.75 1048.05 83 1051.9 82.75 1065.25 46 1072.4 51 1085.3 32 1093.65 18.3 1102.9 19.05 1117.65 32.8 1133.25 51 1135.4 50.75 1148.95 34.6 1153.3 47.75 1159.7 101.05 1164.55 126.5 1165.55 150.2 1169.75 185 1181.25 151.5 1194.85 94.5 1200.55 98 1212.75 48.75 1227 24.9 1229.9 28 1242.1 59.5 1247.8 57.25 1257.55 82.15 1261.4 93.65 1272.9 115.1 1277.1 92.85 1278.1 77.7 1283 61.45 1287.75 35.9 1293.7 19.05
M 466.35 644.15
L 465.6 644.15 465.9 646.1 466.35 644.15 Z"/>
    </g>
</defs>
<g transform="matrix( 1, 0, 0, 1, 0,0) ">
    <use xlink:href="#Layer1_0_FILL"/>
</g>
</svg>
