<svg xmlns="http://www.w3.org/2000/svg" xmlns:xlink="http://www.w3.org/1999/xlink" version="1.1" preserveAspectRatio="none" x="0px" y="0px" width="550px" height="339px" viewBox="0 0 550 339">
<defs>
<g id="Layer1_0_FILL">
<path fill="#6d94a3" stroke="none" d=" M 99 324.4 Q 98 324.3 97.3 324.9 96.7 325.6 96.6 326.4 96.5 327.4 97.2 328.1 97.8 328.8 98.8 328.8 99.7 328.9 100.3 328.2 101 327.6 101.1 326.7 101.2 325.8 100.5 325.1 99.9 324.4 99 324.4 M 147.2 323.8 Q 147.3 322.9 146.7 322.1 146.1 321.4 145.1 321.4 144.2 321.4 143.5 322 142.8 322.6 142.8 323.6 142.7 324.4 143.3 325.1 143.9 325.9 144.9 325.9 145.8 325.9 146.4 325.3 147.2 324.7 147.2 323.8 M 43.6 319.8 Q 42.9 320.4 42.9 321.4 42.8 322.3 43.5 322.9 44 323.6 45 323.7 45.9 323.8 46.5 323.1 47.2 322.5 47.3 321.6 47.4 320.6 46.7 320 46.1 319.3 45.2 319.2 44.3 319.2 43.6 319.8 M 300.2 63 Q 300.2 36.9 281.8 18.4 263.3 0 237.2 0 211.2 0 192.7 18.4 174.2 36.9 174.2 63 174.2 89 192.7 107.5 194.1 108.8 195.6 110.2 193.8 110.5 192.6 111.8 190.8 113.5 190.8 115.9 190.8 118.3 192.6 120 194.2 121.7 196.7 121.7 L 209.7 121.7 209.7 125.9 196.7 125.9 Q 194.2 125.9 192.6 127.5 190.8 129.3 190.8 131.7 190.8 134.1 192.6 135.8 194.2 137.5 196.7 137.5 L 209.7 137.5 209.7 141.8 196.7 141.8 Q 194.2 141.8 192.6 143.5 190.8 145.2 190.8 147.6 190.8 150.1 192.6 151.8 194.2 153.4 196.7 153.4 L 209.7 153.4 209.7 157.7 196.7 157.7 Q 194.2 157.7 192.6 159.3 190.8 161.1 190.8 163.4 190.8 165.8 192.6 167.6 194.2 169.2 196.7 169.2 L 209.7 169.2 209.7 173.9 196.7 173.9 Q 194.2 173.9 192.6 175.6 190.8 177.3 190.8 179.7 190.8 182.2 192.6 183.8 194.2 185.5 196.7 185.5 L 209.7 185.5 209.7 189.7 196.7 189.7 Q 194.2 189.7 192.6 191.4 190.8 193.1 190.8 195.5 190.8 197.9 192.6 199.7 194.2 201.3 196.7 201.3 L 209.7 201.3 209.7 205.7 196.7 205.7 Q 194.2 205.7 192.6 207.3 190.8 209.1 190.8 211.5 190.8 213.9 192.6 215.6 194.2 217.2 196.7 217.2 L 209.7 217.2 209.7 221.5 196.7 221.5 Q 194.2 221.5 192.6 223.2 190.8 224.9 190.8 227.3 190.8 229.7 192.6 231.4 194.2 233.1 196.7 233.1 L 209.7 233.1 209.7 254.3 195.4 254.3 Q 190.6 254.3 186.6 256.1 L 186.6 228 Q 186.6 215.6 174.1 215.6 L 12.5 215.6 Q 0 215.6 0 228 L 0 339.3 43.1 339.3 Q 39.9 338.8 37.5 336.3 34.3 333.1 34.3 328.7 34.3 324.2 37.5 321.1 40.6 317.9 45 317.9 49.5 317.9 52.6 321.1 55.8 324.2 55.8 328.7 55.8 333.1 52.6 336.3 50.2 338.8 47 339.3 L 54.2 339.3 53.2 338.2 Q 53.6 337.9 53.9 337.6 L 54 337.6 55.2 338.9 Q 55 339.1 54.7 339.3 L 91.3 339.3 Q 88.1 338.8 85.6 336.3 82.5 333.1 82.5 328.7 82.5 324.2 85.6 321.1 88.8 317.9 93.2 317.9 97.7 317.9 100.8 321.1 104 324.2 104 328.7 104 333.1 100.8 336.3 98.3 338.8 95.2 339.3 L 102.3 339.3 101.5 338.2 Q 101.8 337.9 102.1 337.6 L 103.3 338.9 Q 103.1 339.1 102.8 339.3 L 139.3 339.3 Q 136.1 338.8 133.7 336.3 130.5 333.1 130.5 328.7 130.5 324.2 133.7 321.1 136.8 317.9 141.2 317.9 145.7 317.9 148.8 321.1 152 324.2 152 328.7 152 333.1 148.8 336.3 146.4 338.8 143.2 339.3 L 150.3 339.3 149.4 338.2 Q 149.8 337.9 150.1 337.6 L 151.3 338.9 Q 151.1 339.1 150.8 339.3 L 300.8 339.3 Q 304.7 333.8 304.7 326.6 L 304.7 326.5 Q 304.7 317.3 298.2 310.8 291.7 304.3 282.4 304.3 L 264.8 304.3 264.8 298.8 281.4 298.8 Q 290.6 298.8 297.1 292.2 303.6 285.8 303.6 276.6 L 303.6 276.5 Q 303.6 267.3 297.1 260.8 290.6 254.3 281.4 254.3 L 264.8 254.3 264.8 233.1 277.8 233.1 Q 280.2 233.1 281.9 231.4 283.6 229.7 283.6 227.3 283.6 224.9 281.9 223.2 280.2 221.5 277.8 221.5 L 264.8 221.5 264.8 217.2 277.8 217.2 Q 280.2 217.2 281.9 215.6 283.6 213.9 283.6 211.5 283.6 209.1 281.9 207.3 280.2 205.7 277.8 205.7 L 264.8 205.7 264.8 201.3 277.8 201.3 Q 280.2 201.3 281.9 199.7 283.6 197.9 283.6 195.5 283.6 193.1 281.9 191.4 280.2 189.7 277.8 189.7 L 264.8 189.7 264.8 185.5 277.8 185.5 Q 280.2 185.5 281.9 183.8 283.6 182.2 283.6 179.7 283.6 177.3 281.9 175.6 280.2 173.9 277.8 173.9 L 264.8 173.9 264.8 169.2 277.8 169.2 Q 280.2 169.2 281.9 167.6 283.6 165.8 283.6 163.4 283.6 161.1 281.9 159.3 280.2 157.7 277.8 157.7 L 264.8 157.7 264.8 153.4 277.8 153.4 Q 280.2 153.4 281.9 151.8 283.6 150.1 283.6 147.6 283.6 145.2 281.9 143.5 280.2 141.8 277.8 141.8 L 264.8 141.8 264.8 137.5 277.8 137.5 Q 280.2 137.5 281.9 135.8 283.6 134.1 283.6 131.7 283.6 129.3 281.9 127.5 280.2 125.9 277.8 125.9 L 264.8 125.9 264.8 121.7 277.8 121.7 Q 280.2 121.7 281.9 120 283.6 118.3 283.6 115.9 283.6 113.5 281.9 111.8 280.6 110.5 278.9 110.2 280.4 108.8 281.8 107.5 300.2 89 300.2 63 M 238.1 6.5 Q 223.4 11.1 211.8 22.8 192.6 42 192.6 69.3 192.6 74.7 194.7 84.4 L 196.8 93.2 191.7 93.2 187.1 82 Q 182.4 69.3 182.4 62.1 182.4 39 198.7 22.6 213.2 8.2 232.9 6.5 231.2 7 238.1 6.5 M 141.3 233.4 Q 153.1 233.4 161.4 241.8 169.8 250.1 169.8 261.9 169.8 273.7 161.4 282.1 153.1 290.4 141.3 290.4 129.5 290.4 121.2 282.1 112.8 273.7 112.8 261.9 112.8 250.1 121.2 241.8 129.5 233.4 141.3 233.4 M 45.4 233.4 Q 57.1 233.4 65.5 241.8 73.8 250.1 73.8 261.9 73.8 273.7 65.5 282.1 57.1 290.4 45.4 290.4 33.5 290.4 25.1 282.1 16.9 273.7 16.9 261.9 16.8 250.1 25.1 241.8 L 25.2 241.8 Q 33.5 233.4 45.4 233.4 M 45 314.4 L 45 314.4 Q 45.6 314.4 46.1 314.4 L 46 316.2 Q 45.5 316.1 45 316.1 L 45 316.1 45 314.4 M 40.9 315 L 41.4 316.7 Q 40.6 316.9 40 317.2 L 39.2 315.6 Q 40 315.2 40.9 315 M 49.6 317 L 50.2 315.4 Q 51 315.6 51.8 316.1 L 51 317.6 Q 50.3 317.2 49.6 317 M 55.2 318.6 Q 55.5 319 55.9 319.4 L 54.5 320.5 Q 54.2 320.1 53.9 319.9 L 55.1 318.6 Q 55.2 318.6 55.2 318.6 M 57.1 325.1 Q 56.9 324.3 56.5 323.6 L 58.2 322.9 Q 58.5 323.7 58.8 324.5 L 57.1 325.1 M 57.5 329.6 Q 57.6 329.1 57.6 328.7 L 59.4 328.7 Q 59.4 329.2 59.4 329.8 L 57.5 329.6 M 56.8 333.2 L 58.5 333.9 Q 58.1 334.7 57.8 335.4 L 56.1 334.6 Q 56.5 333.9 56.8 333.2 M 80.1 334.5 Q 79.8 333.8 79.5 332.9 L 81.2 332.4 Q 81.5 333.1 81.8 333.8 L 80.1 334.5 M 80.7 328.7 L 78.9 328.8 78.9 328.7 Q 78.9 328.2 79 327.7 L 80.8 327.8 Q 80.7 328.2 80.7 328.7 M 79.8 323.6 Q 80.2 322.7 80.5 321.9 L 82.2 322.8 Q 81.8 323.5 81.5 324.2 L 79.8 323.6 M 35.7 317.9 L 36.9 319.2 Q 36.5 319.6 36.2 319.9 L 36.2 319.9 35 318.6 Q 35.4 318.2 35.7 317.9 M 30.8 327.7 L 32.5 327.8 Q 32.5 328.2 32.5 328.7 L 30.8 328.8 30.8 328.7 Q 30.8 328.2 30.8 327.7 M 34 322.8 Q 33.6 323.5 33.4 324.2 L 31.7 323.6 Q 32 322.7 32.4 321.9 L 34 322.8 M 31.4 332.9 L 33 332.4 Q 33.3 333.1 33.6 333.8 L 31.9 334.5 Q 31.6 333.8 31.4 332.9 M 36.2 337.6 L 35 338.9 Q 34.5 338.4 34.2 338.1 L 35.6 336.9 Q 35.9 337.2 36.2 337.6 M 147.2 317.6 Q 146.4 317.2 145.8 317 L 146.4 315.4 Q 147.2 315.6 147.9 316.1 L 147.2 317.6 M 142.2 314.4 L 142.2 316.2 Q 141.7 316.1 141.2 316.1 141.2 316.1 141.2 316.1 L 141.2 314.4 Q 141.2 314.4 141.2 314.4 141.8 314.4 142.2 314.4 M 151.3 318.6 L 151.3 318.6 Q 151.8 319 152.1 319.4 L 150.7 320.5 Q 150.4 320.1 150.1 319.9 L 151.3 318.6 M 131.1 318.6 L 131.2 318.6 Q 131.5 318.2 131.9 317.9 L 133.1 319.2 Q 132.7 319.6 132.4 319.9 L 132.4 319.9 131.1 318.6 M 136.2 317.2 L 135.4 315.6 Q 136.2 315.2 137.1 315 L 137.6 316.7 Q 136.8 316.9 136.2 317.2 M 127 327.7 L 128.8 327.8 Q 128.7 328.2 128.7 328.7 L 127 328.8 127 328.7 Q 127 328.2 127 327.7 M 130.2 322.8 Q 129.8 323.5 129.6 324.2 L 127.8 323.6 Q 128.2 322.7 128.6 321.9 L 130.2 322.8 M 127.5 332.9 L 129.2 332.4 Q 129.4 333.1 129.8 333.8 L 128.1 334.5 Q 127.8 333.8 127.5 332.9 M 131.2 338.9 Q 130.8 338.4 130.4 338.1 L 131.8 336.9 Q 132.1 337.2 132.4 337.6 L 131.2 338.9 M 153.2 325.1 Q 153 324.3 152.8 323.6 L 154.4 322.9 Q 154.7 323.7 154.9 324.5 L 153.2 325.1 M 153.8 328.7 L 155.6 328.7 Q 155.6 329.2 155.5 329.8 L 153.8 329.6 Q 153.8 329.1 153.8 328.7 M 152.9 333.2 L 154.7 333.9 Q 154.3 334.7 153.9 335.4 L 152.3 334.6 Q 152.7 333.9 152.9 333.2 M 103.3 318.6 Q 103.8 319 104 319.4 L 102.7 320.5 Q 102.4 320.1 102.1 319.9 L 103.3 318.6 103.3 318.6 M 84.3 319.9 L 83.1 318.6 83.2 318.6 Q 83.5 318.2 83.8 317.9 L 85 319.2 Q 84.7 319.6 84.3 319.9 L 84.3 319.9 M 89.5 316.7 Q 88.8 316.9 88.2 317.2 L 87.5 315.6 Q 88.2 315.2 89 315 L 89.5 316.7 M 93.2 314.4 Q 93.2 314.4 93.2 314.4 93.8 314.4 94.2 314.4 L 94.2 316.2 Q 93.7 316.1 93.2 316.1 93.2 316.1 93.2 316.1 L 93.2 314.4 M 99.1 317.6 Q 98.5 317.2 97.8 317 L 98.4 315.4 Q 99.2 315.6 100 316.1 L 99.1 317.6 M 84.3 337.6 L 83.2 338.9 Q 82.7 338.4 82.4 338.1 L 83.8 336.9 Q 84 337.2 84.3 337.6 M 106.4 322.9 Q 106.7 323.7 107 324.5 L 105.2 325.1 Q 105 324.3 104.8 323.6 L 106.4 322.9 M 105.8 329.6 Q 105.8 329.1 105.8 328.7 L 107.5 328.7 Q 107.5 329.2 107.5 329.8 L 105.8 329.6 M 105 333.2 L 106.7 333.9 Q 106.3 334.7 105.9 335.4 L 104.3 334.6 Q 104.7 333.9 105 333.2 M 209.7 298.8 L 209.7 304.3 196.6 304.3 Q 191.1 304.3 186.6 306.6 L 186.6 297 Q 190.6 298.8 195.4 298.8 L 209.7 298.8 M 61.7 245.6 Q 54.9 238.8 45.4 238.9 35.8 238.8 29.1 245.6 22.3 252.3 22.3 261.9 22.3 271.4 29.1 278.2 30.6 279.8 32.3 280.9 L 34.1 278.3 Q 32.9 277.4 31.6 276.2 25.8 270.5 25.6 262.2 25.4 253.9 31.1 248 37 242.1 45.2 241.9 53.5 241.8 59.4 247.6 65.3 253.2 65.5 261.5 65.7 269.8 59.9 275.8 58.6 277.1 57.1 278.1 58.6 277.1 59.9 275.8 65.7 269.8 65.5 261.5 65.3 253.2 59.4 247.6 53.5 241.8 45.2 241.9 37 242.1 31.1 248 25.4 253.9 25.6 262.2 25.8 270.5 31.6 276.2 32.9 277.4 34.1 278.3 L 45.5 261.9 58.6 280.9 Q 60.2 279.7 61.7 278.2 68.4 271.4 68.4 261.9 68.4 252.3 61.7 245.6 M 141.3 238.9 Q 131.8 238.8 125 245.6 118.2 252.3 118.2 261.9 118.2 271.4 125 278.2 126.5 279.8 128.2 280.9 L 130.1 278.3 Q 128.8 277.4 127.6 276.2 121.7 270.5 121.5 262.2 121.4 253.9 127.1 248.1 132.9 242.1 141.2 241.9 149.4 241.8 155.3 247.6 161.3 253.3 161.4 261.6 161.6 269.8 155.8 275.8 154.6 277.1 153.1 278.1 154.6 277.1 155.8 275.8 161.6 269.8 161.4 261.6 161.3 253.3 155.3 247.6 149.4 241.8 141.2 241.9 132.9 242.1 127.1 248.1 121.4 253.9 121.5 262.2 121.7 270.5 127.6 276.2 128.8 277.4 130.1 278.3 L 141.4 261.9 154.6 280.9 Q 156.2 279.7 157.7 278.2 164.3 271.4 164.3 261.9 164.3 252.3 157.7 245.6 150.8 238.8 141.3 238.9 M 410.9 265.4 L 408.8 265.4 398.6 265.4 396.6 265.4 380.9 265.4 378.9 265.4 368.8 265.4 366.6 265.4 352.3 265.4 350.1 265.4 340.1 265.4 337.9 265.4 308.5 265.4 308.5 269.1 315.9 269.1 315.9 331.5 308.5 331.5 308.5 339.3 480.6 339.3 480.6 331.5 472.4 331.5 472.4 269.1 480.6 269.1 480.6 265.4 410.9 265.4 M 408.8 269.1 L 410.9 269.1 462.5 269.1 462.5 331.5 407.9 331.5 399.4 331.5 378.1 331.5 369.4 331.5 349.4 331.5 340.8 331.5 325.9 331.5 325.9 269.1 337.9 269.1 340.1 269.1 350.1 269.1 352.3 269.1 366.6 269.1 368.8 269.1 378.9 269.1 381 269.1 396.6 269.1 398.6 269.1 408.8 269.1 Z"/>

<path fill="#f45655" stroke="none" d=" M 102.8 339.3 Q 103.1 339.1 103.3 338.9 L 102.1 337.6 Q 101.8 337.9 101.5 338.2 L 102.3 339.3 102.8 339.3 M 150.3 339.3 L 150.8 339.3 Q 151.1 339.1 151.3 338.9 L 150.1 337.6 Q 149.8 337.9 149.4 338.2 L 150.3 339.3 M 53.2 338.2 L 54.2 339.3 54.7 339.3 Q 55 339.1 55.2 338.9 L 54 337.6 53.9 337.6 Q 53.6 337.9 53.2 338.2 M 106.7 333.9 L 105 333.2 Q 104.7 333.9 104.3 334.6 L 105.9 335.4 Q 106.3 334.7 106.7 333.9 M 105.8 328.7 Q 105.8 329.1 105.8 329.6 L 107.5 329.8 Q 107.5 329.2 107.5 328.7 L 105.8 328.7 M 107 324.5 Q 106.7 323.7 106.4 322.9 L 104.8 323.6 Q 105 324.3 105.2 325.1 L 107 324.5 M 83.2 338.9 L 84.3 337.6 Q 84 337.2 83.8 336.9 L 82.4 338.1 Q 82.7 338.4 83.2 338.9 M 97.8 317 Q 98.5 317.2 99.1 317.6 L 100 316.1 Q 99.2 315.6 98.4 315.4 L 97.8 317 M 93.2 314.4 Q 93.2 314.4 93.2 314.4 L 93.2 316.1 Q 93.2 316.1 93.2 316.1 93.7 316.1 94.2 316.2 L 94.2 314.4 Q 93.8 314.4 93.2 314.4 M 88.2 317.2 Q 88.8 316.9 89.5 316.7 L 89 315 Q 88.2 315.2 87.5 315.6 L 88.2 317.2 M 83.1 318.6 L 84.3 319.9 84.3 319.9 Q 84.7 319.6 85 319.2 L 83.8 317.9 Q 83.5 318.2 83.2 318.6 L 83.1 318.6 M 104 319.4 Q 103.8 319 103.3 318.6 L 103.3 318.6 102.1 319.9 Q 102.4 320.1 102.7 320.5 L 104 319.4 M 154.7 333.9 L 152.9 333.2 Q 152.7 333.9 152.3 334.6 L 153.9 335.4 Q 154.3 334.7 154.7 333.9 M 155.6 328.7 L 153.8 328.7 Q 153.8 329.1 153.8 329.6 L 155.5 329.8 Q 155.6 329.2 155.6 328.7 M 152.8 323.6 Q 153 324.3 153.2 325.1 L 154.9 324.5 Q 154.7 323.7 154.4 322.9 L 152.8 323.6 M 130.4 338.1 Q 130.8 338.4 131.2 338.9 L 132.4 337.6 Q 132.1 337.2 131.8 336.9 L 130.4 338.1 M 129.2 332.4 L 127.5 332.9 Q 127.8 333.8 128.1 334.5 L 129.8 333.8 Q 129.4 333.1 129.2 332.4 M 129.6 324.2 Q 129.8 323.5 130.2 322.8 L 128.6 321.9 Q 128.2 322.7 127.8 323.6 L 129.6 324.2 M 128.8 327.8 L 127 327.7 Q 127 328.2 127 328.7 L 127 328.8 128.7 328.7 Q 128.7 328.2 128.8 327.8 M 135.4 315.6 L 136.2 317.2 Q 136.8 316.9 137.6 316.7 L 137.1 315 Q 136.2 315.2 135.4 315.6 M 131.2 318.6 L 131.1 318.6 132.4 319.9 132.4 319.9 Q 132.7 319.6 133.1 319.2 L 131.9 317.9 Q 131.5 318.2 131.2 318.6 M 151.3 318.6 L 151.3 318.6 150.1 319.9 Q 150.4 320.1 150.7 320.5 L 152.1 319.4 Q 151.8 319 151.3 318.6 M 142.2 316.2 L 142.2 314.4 Q 141.8 314.4 141.2 314.4 141.2 314.4 141.2 314.4 L 141.2 316.1 Q 141.2 316.1 141.2 316.1 141.7 316.1 142.2 316.2 M 145.8 317 Q 146.4 317.2 147.2 317.6 L 147.9 316.1 Q 147.2 315.6 146.4 315.4 L 145.8 317 M 35 338.9 L 36.2 337.6 Q 35.9 337.2 35.6 336.9 L 34.2 338.1 Q 34.5 338.4 35 338.9 M 33 332.4 L 31.4 332.9 Q 31.6 333.8 31.9 334.5 L 33.6 333.8 Q 33.3 333.1 33 332.4 M 33.4 324.2 Q 33.6 323.5 34 322.8 L 32.4 321.9 Q 32 322.7 31.7 323.6 L 33.4 324.2 M 32.5 327.8 L 30.8 327.7 Q 30.8 328.2 30.8 328.7 L 30.8 328.8 32.5 328.7 Q 32.5 328.2 32.5 327.8 M 36.9 319.2 L 35.7 317.9 Q 35.4 318.2 35 318.6 L 36.2 319.9 36.2 319.9 Q 36.5 319.6 36.9 319.2 M 80.5 321.9 Q 80.2 322.7 79.8 323.6 L 81.5 324.2 Q 81.8 323.5 82.2 322.8 L 80.5 321.9 M 78.9 328.8 L 80.7 328.7 Q 80.7 328.2 80.8 327.8 L 79 327.7 Q 78.9 328.2 78.9 328.7 L 78.9 328.8 M 79.5 332.9 Q 79.8 333.8 80.1 334.5 L 81.8 333.8 Q 81.5 333.1 81.2 332.4 L 79.5 332.9 M 58.5 333.9 L 56.8 333.2 Q 56.5 333.9 56.1 334.6 L 57.8 335.4 Q 58.1 334.7 58.5 333.9 M 57.6 328.7 Q 57.6 329.1 57.5 329.6 L 59.4 329.8 Q 59.4 329.2 59.4 328.7 L 57.6 328.7 M 56.5 323.6 Q 56.9 324.3 57.1 325.1 L 58.8 324.5 Q 58.5 323.7 58.2 322.9 L 56.5 323.6 M 55.9 319.4 Q 55.5 319 55.2 318.6 55.2 318.6 55.1 318.6 L 53.9 319.9 Q 54.2 320.1 54.5 320.5 L 55.9 319.4 M 50.2 315.4 L 49.6 317 Q 50.3 317.2 51 317.6 L 51.8 316.1 Q 51 315.6 50.2 315.4 M 41.4 316.7 L 40.9 315 Q 40 315.2 39.2 315.6 L 40 317.2 Q 40.6 316.9 41.4 316.7 M 45 314.4 L 45 314.4 45 316.1 45 316.1 Q 45.5 316.1 46 316.2 L 46.1 314.4 Q 45.6 314.4 45 314.4 Z"/>

<path fill="#6d94a3" stroke="none" d=" M 485.1 337.7 Q 485.1 338.8 485.6 339.3 L 549.5 339.3 Q 550 338.7 550 337.5 550 335.6 547.1 331.6 546.4 330.6 540.6 323.4 536.4 317.9 534.2 314.8 533.9 314.2 533.5 313.7 529.4 307.8 527.4 302.8 526.5 300.8 525.9 299.4 525.4 298.3 525.4 298.1 525.3 297.9 524.7 294.9 L 524.7 268.9 Q 526.4 268.6 527.3 267.7 528.5 266.6 528.5 264.8 528.5 263.1 527.4 261.9 526.2 260.5 524.2 260.4 524.1 260.4 524.1 260.4 L 511.3 260.4 Q 511.2 260.4 511.2 260.4 L 511.1 260.4 Q 509.2 260.5 508.1 261.9 506.9 263.1 506.9 264.8 506.9 266.8 508.4 267.9 L 508.4 268 Q 509.3 268.7 510.4 268.9 L 510.4 295.1 Q 510.4 295.2 510.2 295.4 509.9 296.7 508 301.3 506.2 305.8 505.4 307.2 504.4 309.2 501.4 313.7 500.1 315.5 498.6 317.6 494.1 323.9 493.1 325.1 489.4 329.4 487.6 332 485.1 335.8 485.1 337.7 M 509.1 264.8 Q 509.1 263.9 509.6 263.2 510.2 262.6 511.3 262.6 L 524.1 262.6 Q 525.1 262.6 525.8 263.2 526.4 263.9 526.4 264.8 526.3 265.6 525.8 266.1 525 266.9 523.6 266.9 L 523 267.2 522.9 267.2 Q 522.8 267.3 522.8 267.4 L 522.6 267.6 522.6 267.9 Q 522.6 267.9 522.6 268.1 L 522.6 295 Q 522.6 295.2 522.7 295.4 523 300.4 529.8 311.4 530.5 312.6 531.2 313.7 L 504.1 313.7 Q 509.9 304.6 512.4 295.4 512.5 295.2 512.5 295 L 512.5 267.9 512.3 267.4 Q 512.2 267.3 512.1 267.2 512.1 267.1 512 267.1 L 511.4 266.9 Q 510.5 266.9 509.8 266.4 509 265.8 509.1 264.8 M 364.3 257.1 Q 363.2 258.4 363.2 260 363.2 262.1 364.7 263.2 365.6 263.9 366.6 264.2 366.6 264.8 366.6 265.4 L 368.8 265.4 368.8 263.2 368.6 262.6 Q 368.5 262.6 368.4 262.5 368.4 262.4 368.2 262.4 L 367.7 262.2 Q 366.8 262.1 366.1 261.6 365.3 261 365.3 260 365.3 259.1 365.9 258.5 366.6 257.9 367.6 257.8 L 380.4 257.8 Q 381.4 257.9 382.1 258.5 382.6 259.1 382.6 260 382.6 260.9 382.1 261.4 381.3 262.1 379.9 262.2 L 379.2 262.4 Q 379.2 262.5 379.1 262.5 379.1 262.6 379 262.7 L 378.9 262.9 378.9 263.1 Q 378.9 263.2 378.9 263.3 L 378.9 265.4 380.9 265.4 Q 380.9 264.8 380.9 264.2 382.6 263.9 383.6 262.9 384.8 261.8 384.8 260 384.7 258.3 383.6 257.1 382.4 255.8 380.4 255.7 380.4 255.7 380.4 255.7 L 367.6 255.7 Q 367.5 255.7 367.4 255.7 L 367.4 255.7 Q 365.4 255.8 364.3 257.1 M 351.7 257.8 Q 352.8 257.9 353.4 258.5 353.9 259.1 353.9 260 353.9 260.9 353.4 261.4 352.6 262.1 351.1 262.2 L 350.6 262.4 Q 350.5 262.5 350.4 262.5 350.4 262.6 350.3 262.7 L 350.2 262.9 350.1 263.1 Q 350.1 263.2 350.1 263.3 L 350.1 265.4 352.3 265.4 Q 352.3 264.8 352.3 264.2 353.9 263.9 354.9 262.9 356.1 261.8 356.1 260 356 258.3 354.9 257.1 353.8 255.8 351.8 255.7 L 338.7 255.7 Q 336.8 255.8 335.6 257.1 334.5 258.4 334.5 260 334.5 262.1 336 263.2 L 336.1 263.2 Q 336.9 263.9 337.9 264.2 337.9 264.8 337.9 265.4 L 340.1 265.4 340.1 263.2 339.9 262.6 Q 339.9 262.6 339.8 262.5 339.6 262.4 339.6 262.4 L 339 262.2 Q 338.1 262.1 337.4 261.6 336.6 261 336.6 260 336.6 259.1 337.2 258.5 337.9 257.9 338.9 257.8 L 351.7 257.8 M 368.8 269.1 L 366.6 269.1 Q 366.6 282.4 366.6 292.8 366.6 326.8 366.6 328 366.7 329.5 368.8 331.1 369.1 331.3 369.4 331.5 L 378.1 331.5 Q 378.5 331.2 378.9 330.9 380.9 329.2 380.9 328 381 327.1 381 292.8 381 282.4 381 269.1 L 378.9 269.1 378.9 292.8 Q 378.9 297.6 378.9 301.8 L 368.8 301.8 368.8 269.1 M 352.3 269.1 L 350.1 269.1 350.2 281.1 340.1 281.1 340.1 269.1 337.9 269.1 Q 337.9 282.4 337.9 292.8 337.9 326.8 337.9 328 338 329.5 340.1 331.1 340.4 331.3 340.8 331.5 L 349.4 331.5 Q 349.8 331.2 350.3 330.9 352.2 329.2 352.3 328 352.4 327.1 352.3 292.8 352.3 282.4 352.3 269.1 M 410.9 269.1 L 408.8 269.1 408.8 291.4 398.6 291.4 398.6 269.1 396.6 269.1 Q 396.5 282.4 396.5 292.8 396.5 326.8 396.6 328 396.6 329.5 398.6 331.1 399 331.3 399.4 331.5 L 407.9 331.5 Q 408.4 331.2 408.9 330.9 410.8 329.2 410.9 328 410.9 327.1 410.9 292.8 410.9 282.4 410.9 269.1 M 413.6 257.1 Q 412.4 255.8 410.4 255.7 410.4 255.7 410.3 255.7 L 397.4 255.7 Q 395.4 255.8 394.2 257.1 393.1 258.4 393.1 260 393.1 262.1 394.6 263.2 L 394.6 263.2 Q 395.5 263.9 396.6 264.2 396.6 264.8 396.6 265.4 L 398.6 265.4 398.6 263.2 398.5 262.6 Q 398.4 262.6 398.4 262.5 398.2 262.4 398.2 262.4 L 397.6 262.2 Q 396.6 262.1 396 261.6 395.2 261 395.2 260 395.2 259.1 395.8 258.5 396.4 257.9 397.5 257.8 L 410.3 257.8 Q 411.4 257.9 412 258.5 412.6 259.1 412.6 260 412.5 260.9 412 261.4 411.2 262.1 409.8 262.2 L 409.1 262.4 409.1 262.5 Q 409 262.6 408.9 262.7 L 408.9 262.9 408.8 263.1 Q 408.8 263.2 408.8 263.3 L 408.8 265.4 410.9 265.4 Q 410.9 264.8 410.9 264.2 412.6 263.9 413.4 262.9 414.6 261.8 414.6 260 414.6 258.3 413.6 257.1 Z"/>
</g>

<g id="Layer1_0_STROKES_1_FILL">
<path fill="#f45655" stroke="none" d=" M 57.4 275.3 Q 57.3 275.2 57.1 275.1 57 275.2 56.9 275.2 56.8 275.4 56.8 275.5 56.8 275.7 56.9 275.8 L 59.5 278.9 Q 59.6 279 59.7 279 59.9 279 60 278.9 60.1 278.8 60.1 278.6 60.1 278.5 60 278.4 L 57.4 275.3 M 59.9 272.6 Q 59.8 272.6 59.6 272.6 59.5 272.6 59.4 272.7 59.3 272.8 59.3 273 59.3 273.2 59.5 273.2 L 62.5 275.8 Q 62.7 275.8 62.9 275.8 63 275.8 63.1 275.6 63.2 275.6 63.1 275.4 63.2 275.2 63 275.1 L 59.9 272.6 M 61.3 269.9 Q 61.3 270.1 61.5 270.1 L 65 271.9 Q 65.2 272 65.3 272 65.5 272 65.5 271.8 65.6 271.7 65.6 271.5 65.6 271.4 65.4 271.3 L 61.8 269.5 Q 61.7 269.5 61.5 269.5 61.4 269.5 61.3 269.6 61.3 269.8 61.3 269.9 M 63 266.1 Q 62.8 266.1 62.7 266.1 62.6 266.3 62.5 266.4 62.5 266.6 62.5 266.7 62.7 266.8 62.8 266.9 L 66.7 267.9 Q 66.9 267.9 67 267.8 67.1 267.7 67.2 267.6 67.2 267.4 67.1 267.3 67 267.2 66.9 267.1 L 63 266.1 M 67.7 262.9 Q 67.6 262.7 67.5 262.7 L 63.5 262.5 Q 63.3 262.5 63.2 262.6 63.1 262.7 63 262.9 63.1 263 63.1 263.1 63.3 263.3 63.4 263.2 L 67.4 263.4 Q 67.6 263.5 67.7 263.4 67.8 263.3 67.8 263.1 67.8 263 67.7 262.9 M 63.3 258.8 Q 63.1 258.8 63 258.9 63 259.1 63 259.2 63 259.4 63.1 259.5 63.2 259.6 63.4 259.6 L 67.3 258.9 Q 67.5 259 67.5 258.8 67.6 258.7 67.6 258.6 67.6 258.4 67.5 258.3 67.4 258.2 67.2 258.2 L 63.3 258.8 M 62.3 255.3 Q 62.2 255.4 62.1 255.5 62 255.6 62.1 255.8 62.2 255.9 62.3 256 62.4 256.1 62.5 256 L 66.2 254.6 Q 66.4 254.5 66.5 254.4 66.6 254.3 66.5 254.1 66.4 254 66.3 253.9 66.2 253.8 66 253.9 L 62.3 255.3 M 64.5 250.1 Q 64.4 249.9 64.2 249.8 64.1 249.9 64 249.9 L 60.6 252.2 Q 60.5 252.2 60.5 252.3 60.5 252.5 60.5 252.7 60.6 252.8 60.8 252.8 60.9 252.8 61 252.8 L 64.3 250.6 Q 64.5 250.5 64.5 250.3 64.5 250.2 64.5 250.1 M 32.9 274.2 Q 32.7 274.3 32.5 274.4 L 29.8 277.1 Q 29.7 277.3 29.6 277.4 29.7 277.6 29.8 277.7 29.9 277.8 30.1 277.8 30.2 277.8 30.3 277.7 L 33.1 274.9 Q 33.2 274.8 33.2 274.6 33.2 274.5 33.1 274.4 33 274.3 32.9 274.2 M 35.7 276.6 Q 35.6 276.6 35.5 276.8 L 32.9 279.9 Q 32.8 280 32.8 280.1 32.8 280.3 32.9 280.4 33 280.5 33.1 280.4 33.3 280.5 33.4 280.4 L 36 277.2 Q 36.1 277.1 36.1 276.9 36.1 276.8 36 276.7 35.9 276.6 35.7 276.6 M 30.9 271.6 Q 30.8 271.5 30.6 271.4 30.5 271.5 30.3 271.6 L 27 273.9 Q 26.9 273.9 26.9 274.1 26.9 274.2 26.9 274.4 27 274.5 27.1 274.5 27.3 274.5 27.4 274.4 L 30.8 272.1 Q 30.9 272.1 30.9 271.9 30.9 271.8 30.9 271.6 M 25 270.6 Q 25.1 270.6 25.3 270.6 L 29 269.1 Q 29.1 269 29.2 268.9 29.3 268.7 29.2 268.6 29.1 268.4 29 268.4 28.8 268.3 28.7 268.4 L 25 269.9 Q 24.9 269.9 24.8 270.1 24.7 270.2 24.8 270.4 24.9 270.5 25 270.6 M 28.1 264.9 Q 27.9 264.8 27.8 264.8 L 23.9 265.5 Q 23.7 265.6 23.6 265.6 23.6 265.8 23.6 265.9 23.6 266.1 23.7 266.2 23.9 266.3 24 266.2 L 27.9 265.6 Q 28.1 265.5 28.1 265.4 28.2 265.3 28.2 265.1 28.2 265 28.1 264.9 M 27.9 261.1 Q 27.8 261.1 27.6 261.1 L 23.6 261.1 Q 23.4 261.1 23.3 261.1 23.2 261.3 23.2 261.4 23.2 261.6 23.3 261.7 23.4 261.8 23.6 261.8 L 27.6 261.8 Q 27.8 261.8 27.9 261.7 28 261.6 27.9 261.4 28 261.3 27.9 261.1 M 23.6 257 Q 23.6 257.2 23.7 257.3 23.8 257.4 23.9 257.4 L 27.9 258.2 Q 28 258.3 28.1 258.2 28.3 258.1 28.3 257.9 28.4 257.8 28.2 257.7 28.2 257.6 28 257.5 L 24.1 256.7 Q 24 256.7 23.9 256.8 23.7 256.9 23.6 257 M 25.1 252.8 Q 25 252.9 25.1 253.1 25.1 253.2 25.2 253.3 L 28.9 254.9 Q 29 255 29.1 254.9 29.3 254.8 29.4 254.7 29.4 254.6 29.4 254.4 29.3 254.3 29.1 254.2 L 25.6 252.6 Q 25.4 252.5 25.2 252.6 25.1 252.7 25.1 252.8 M 31.1 251.5 Q 31.1 251.3 30.9 251.2 L 27.8 248.9 Q 27.7 248.9 27.5 248.8 27.3 248.9 27.2 249 27.2 249.1 27.1 249.3 27.2 249.5 27.3 249.6 L 30.5 251.8 Q 30.6 251.9 30.8 251.9 31 251.9 31.1 251.8 31.1 251.7 31.1 251.5 M 33.2 243.3 Q 33.2 243.5 33.3 243.6 L 35.5 246.9 Q 35.6 247 35.7 247.1 35.9 247.1 36 247 36.1 246.9 36.1 246.8 36.2 246.6 36.1 246.5 L 33.9 243.2 Q 33.8 243.1 33.6 243 33.5 243 33.4 243.1 33.3 243.2 33.2 243.3 M 37.4 241.1 Q 37.3 241.1 37.2 241.2 37.1 241.4 37.2 241.5 L 38.6 245.2 Q 38.7 245.4 38.8 245.4 38.9 245.5 39 245.4 39.2 245.4 39.3 245.2 39.4 245.1 39.3 244.9 L 37.9 241.2 Q 37.8 241.1 37.7 241.1 37.6 241 37.4 241.1 M 29.9 246.1 Q 29.9 246.2 29.9 246.3 L 32.8 249.2 Q 32.9 249.3 33 249.3 33.2 249.3 33.3 249.2 33.4 249.1 33.4 248.9 33.4 248.8 33.3 248.7 L 30.5 245.8 Q 30.4 245.7 30.2 245.7 30.1 245.7 30 245.8 29.9 245.9 29.9 246.1 M 61.5 246.4 Q 61.3 246.4 61.2 246.5 L 58.3 249.3 Q 58.2 249.4 58.1 249.6 58.2 249.7 58.2 249.8 58.4 250 58.5 249.9 58.7 250 58.8 249.8 L 61.7 247.1 Q 61.8 247 61.8 246.8 61.8 246.7 61.7 246.6 61.6 246.4 61.5 246.4 M 58.5 243.8 Q 58.3 243.8 58.2 243.9 L 55.8 247.1 Q 55.7 247.2 55.7 247.4 55.7 247.6 55.9 247.7 56 247.7 56.1 247.7 56.3 247.7 56.4 247.6 L 58.8 244.3 Q 58.9 244.3 58.9 244.1 58.9 243.9 58.7 243.8 58.6 243.8 58.5 243.8 M 54.6 241.6 Q 54.5 241.7 54.5 241.8 L 52.8 245.4 Q 52.7 245.5 52.8 245.7 52.8 245.8 53 245.9 53.1 246 53.2 245.9 53.4 245.8 53.5 245.7 L 55.1 242.1 Q 55.2 242 55.1 241.8 55.1 241.7 55 241.6 54.8 241.5 54.6 241.6 M 41.5 240 Q 41.5 240.1 41.5 240.3 L 42 244.2 Q 42.1 244.4 42.2 244.4 42.3 244.5 42.5 244.5 42.7 244.5 42.8 244.3 42.8 244.3 42.8 244.1 L 42.2 240.2 Q 42.2 240 42 239.9 42 239.9 41.8 239.8 41.6 239.9 41.5 240 M 46.2 239.6 Q 46.1 239.6 46 239.7 45.9 239.8 45.9 239.9 L 45.8 243.9 Q 45.8 244.1 45.9 244.2 46 244.3 46.1 244.3 46.3 244.3 46.4 244.2 46.5 244.1 46.5 243.9 L 46.6 239.9 Q 46.6 239.8 46.5 239.7 46.4 239.6 46.2 239.6 M 50.4 240.2 Q 50.3 240.3 50.2 240.4 L 49.3 244.3 Q 49.3 244.5 49.4 244.6 49.5 244.7 49.6 244.8 49.8 244.8 49.9 244.7 50 244.6 50 244.4 L 51 240.6 Q 51 240.4 50.9 240.3 50.8 240.2 50.6 240.1 50.5 240.1 50.4 240.2 M 152.8 275.4 Q 152.6 275.5 152.6 275.6 152.6 275.8 152.7 275.9 L 155.4 278.9 Q 155.5 279 155.7 278.9 155.8 279 155.9 278.9 156.1 278.8 156.1 278.6 156.1 278.5 155.9 278.4 L 153.2 275.4 Q 153.2 275.3 153 275.3 152.9 275.3 152.8 275.4 M 159.1 275.4 Q 159.1 275.2 158.9 275.1 L 155.8 272.6 Q 155.8 272.6 155.6 272.6 155.4 272.6 155.3 272.7 155.3 272.8 155.2 273 155.3 273.2 155.4 273.2 L 158.5 275.8 Q 158.6 275.8 158.8 275.8 159 275.8 159.1 275.6 159.1 275.6 159.1 275.4 M 128.8 274.2 Q 128.6 274.3 128.5 274.4 L 125.7 277.1 Q 125.6 277.3 125.6 277.4 125.6 277.6 125.7 277.7 125.8 277.8 126 277.8 126.2 277.8 126.2 277.7 L 129.1 274.9 Q 129.2 274.8 129.2 274.6 129.2 274.5 129.1 274.4 129 274.3 128.8 274.2 M 131.9 277.2 Q 132.1 277.1 132.1 276.9 132.1 276.8 131.9 276.7 131.8 276.6 131.7 276.6 131.5 276.6 131.4 276.8 L 128.8 279.9 Q 128.7 280 128.7 280.1 128.7 280.3 128.8 280.4 129 280.5 129.1 280.4 129.3 280.5 129.3 280.4 L 131.9 277.2 M 126.7 272.1 Q 126.8 272.1 126.8 271.9 126.9 271.8 126.8 271.6 126.7 271.5 126.5 271.4 126.4 271.5 126.2 271.6 L 123 273.9 Q 122.9 273.9 122.8 274.1 122.8 274.2 122.9 274.4 123 274.5 123.1 274.5 123.3 274.5 123.4 274.4 L 126.7 272.1 M 126.8 251.9 Q 126.9 251.9 127 251.8 127.1 251.7 127 251.5 127 251.3 126.9 251.2 L 123.7 248.9 Q 123.6 248.9 123.5 248.8 123.3 248.9 123.2 249 123.1 249.1 123.1 249.3 123.2 249.5 123.2 249.6 L 126.5 251.8 Q 126.6 251.9 126.8 251.9 M 157.2 269.9 Q 157.3 270.1 157.4 270.1 L 161 271.9 Q 161.2 272 161.3 272 161.5 272 161.5 271.8 161.6 271.7 161.6 271.5 161.5 271.4 161.3 271.3 L 157.8 269.5 Q 157.6 269.5 157.4 269.5 157.3 269.5 157.2 269.6 157.2 269.8 157.2 269.9 M 158.5 266.7 Q 158.6 266.8 158.8 266.9 L 162.7 267.9 Q 162.8 267.9 162.9 267.8 163.1 267.7 163.1 267.6 163.2 267.4 163.1 267.3 163 267.2 162.8 267.1 L 158.9 266.1 Q 158.8 266.1 158.7 266.1 158.5 266.3 158.4 266.4 158.4 266.6 158.5 266.7 M 159.1 263.2 Q 159.2 263.3 159.3 263.3 L 163.3 263.5 Q 163.5 263.5 163.7 263.4 163.8 263.3 163.8 263.1 163.8 263 163.7 262.9 163.6 262.8 163.4 262.8 L 159.4 262.6 Q 159.3 262.6 159.2 262.6 159 262.8 159 262.9 159 263.1 159.1 263.2 M 159.1 259.6 Q 159.2 259.6 159.3 259.6 L 163.2 259 Q 163.4 259 163.5 258.9 163.6 258.8 163.6 258.6 163.6 258.4 163.4 258.4 163.3 258.3 163.2 258.2 L 159.2 258.9 Q 159.1 258.9 159 259 158.9 259.1 158.9 259.3 158.9 259.5 159.1 259.6 M 158.2 256.1 Q 158.4 256.1 158.5 256.1 L 162.2 254.7 Q 162.4 254.6 162.4 254.4 162.5 254.3 162.4 254.2 162.4 254 162.2 253.9 162.1 253.9 161.9 253.9 L 158.2 255.3 Q 158.1 255.4 158.1 255.6 158 255.7 158.1 255.8 158.1 256 158.2 256.1 M 160.4 250.1 Q 160.3 250 160.2 249.9 160 249.9 159.9 250 L 156.6 252.2 Q 156.5 252.3 156.4 252.4 156.4 252.6 156.5 252.7 156.6 252.8 156.7 252.8 156.9 252.9 157 252.8 L 160.3 250.6 Q 160.4 250.5 160.4 250.3 160.5 250.2 160.4 250.1 M 121 269.9 Q 120.8 269.9 120.8 270.1 120.7 270.2 120.8 270.4 120.8 270.5 121 270.6 121.1 270.6 121.2 270.6 L 125 269.1 Q 125.1 269 125.2 268.9 125.2 268.7 125.2 268.6 125.1 268.4 125 268.4 124.8 268.3 124.7 268.4 L 121 269.9 M 119.6 265.6 Q 119.5 265.8 119.5 265.9 119.5 266.1 119.7 266.2 119.8 266.3 120 266.2 L 123.8 265.6 Q 124 265.5 124.1 265.4 124.2 265.3 124.2 265.1 124.2 265 124 264.9 123.9 264.8 123.7 264.8 L 119.8 265.5 Q 119.7 265.6 119.6 265.6 M 119.5 261.1 Q 119.4 261.1 119.2 261.1 119.2 261.3 119.2 261.4 119.2 261.6 119.2 261.7 119.4 261.8 119.5 261.8 L 123.5 261.8 Q 123.7 261.8 123.8 261.7 123.9 261.6 123.9 261.4 123.9 261.3 123.8 261.1 123.7 261.1 123.5 261.1 L 119.5 261.1 M 121 253.1 Q 121.1 253.2 121.2 253.3 L 124.9 254.9 Q 125 255 125.2 254.9 125.3 254.8 125.4 254.7 125.5 254.6 125.4 254.4 125.3 254.3 125.2 254.2 L 121.5 252.6 Q 121.4 252.5 121.2 252.6 121.1 252.7 121 252.8 120.9 252.9 121 253.1 M 119.7 257.3 Q 119.8 257.4 120 257.4 L 123.8 258.2 Q 124 258.3 124.2 258.2 124.3 258.1 124.3 257.9 124.4 257.8 124.2 257.7 124.2 257.6 124 257.5 L 120.1 256.7 Q 120 256.7 119.8 256.8 119.7 256.9 119.7 257 119.6 257.2 119.7 257.3 M 157.4 246.4 Q 157.3 246.5 157.2 246.6 L 154.2 249.3 Q 154.1 249.5 154.1 249.7 154.1 249.8 154.2 249.9 154.3 250 154.5 250 154.6 250 154.8 249.9 L 157.7 247.1 Q 157.8 247 157.8 246.8 157.8 246.7 157.7 246.6 157.6 246.5 157.4 246.4 M 151.8 247.1 Q 151.7 247.2 151.7 247.4 151.7 247.6 151.8 247.7 151.9 247.7 152.1 247.7 152.3 247.7 152.3 247.6 L 154.8 244.3 Q 154.8 244.3 154.8 244.1 154.8 243.9 154.7 243.8 154.6 243.8 154.4 243.8 154.2 243.8 154.2 243.9 L 151.8 247.1 M 150.6 241.6 Q 150.5 241.7 150.4 241.8 L 148.7 245.4 Q 148.6 245.5 148.7 245.7 148.8 245.8 148.9 245.9 149 246 149.2 245.9 149.3 245.8 149.4 245.7 L 151.1 242.1 Q 151.2 242 151.1 241.8 151 241.7 150.9 241.6 150.8 241.5 150.6 241.6 M 141.9 239.7 Q 141.8 239.8 141.8 239.9 L 141.7 243.9 Q 141.7 244.1 141.8 244.2 141.9 244.3 142.1 244.3 142.2 244.3 142.3 244.2 142.5 244.1 142.4 243.9 L 142.6 239.9 Q 142.6 239.8 142.4 239.7 142.4 239.6 142.2 239.6 142.1 239.6 141.9 239.7 M 146.9 240.6 Q 147 240.4 146.8 240.3 146.8 240.2 146.6 240.1 146.5 240.1 146.3 240.2 146.2 240.3 146.2 240.4 L 145.2 244.3 Q 145.2 244.5 145.3 244.6 145.4 244.7 145.6 244.8 145.7 244.8 145.8 244.7 146 244.6 146 244.4 L 146.9 240.6 M 133.8 241.2 Q 133.8 241.1 133.7 241.1 133.5 241 133.3 241.1 133.2 241.1 133.2 241.2 133.1 241.4 133.2 241.5 L 134.6 245.2 Q 134.6 245.4 134.8 245.4 134.9 245.5 135 245.4 135.2 245.4 135.2 245.2 135.3 245.1 135.2 244.9 L 133.8 241.2 M 137.8 239.8 Q 137.6 239.9 137.5 240 137.4 240.1 137.4 240.3 L 138 244.2 Q 138 244.4 138.2 244.4 138.3 244.5 138.4 244.5 138.6 244.5 138.7 244.3 138.8 244.3 138.8 244.1 L 138.2 240.2 Q 138.2 240 138 239.9 137.9 239.9 137.8 239.8 M 129.2 243.3 Q 129.2 243.5 129.2 243.6 L 131.4 246.9 Q 131.5 247 131.7 247.1 131.8 247.1 131.9 247 132.1 246.9 132.1 246.8 132.1 246.6 132.1 246.5 L 129.8 243.2 Q 129.8 243.1 129.6 243 129.5 243 129.3 243.1 129.2 243.2 129.2 243.3 M 125.8 246.1 Q 125.8 246.2 125.9 246.3 L 128.7 249.2 Q 128.8 249.4 129 249.3 129.1 249.4 129.2 249.2 129.4 249.2 129.3 249 129.4 248.9 129.2 248.8 L 126.5 245.8 Q 126.4 245.7 126.2 245.7 126.1 245.7 126 245.8 125.8 245.9 125.8 246.1 Z"/>
</g>
</defs>

<g transform="matrix( 1, 0, 0, 1, 0,0) ">
<use xlink:href="#Layer1_0_FILL"/>

<use xlink:href="#Layer1_0_STROKES_1_FILL"/>
</g>
</svg>
