<svg xmlns="http://www.w3.org/2000/svg" viewBox="0 0 1290.15 26.08">
    <path d="M-9.67,420.67s1.94-.75,5.68-1.93" transform="translate(10.03 -401.58)" style="fill:none;stroke:#000000;stroke-miterlimit:10;stroke-width:2px"/>
    <path d="M7.57,415.47c18.56-4.74,51.37-11,94.87-10.58C197,405.71,189.22,421,256.89,418.67c68.64-2.37,62.33-19.28,144.44-13.4,47.93,3.43,122.13,15.35,194.72,11.17,78.73-4.54,153.11,4.41,184.28,2.68,60-3.33,55.56-7.39,114.44-13.42s65.56-3.92,144.44,11.64S1157,425.22,1200.33,421c39.32-3.83,33.27-5.47,67.74-1.42" transform="translate(10.03 -401.58)" style="fill:none;stroke:#000000;stroke-miterlimit:10;stroke-width:2px;stroke-dasharray:12.014997482299805,12.014997482299805"/>
    <path d="M1274,420.29l6,0.71" transform="translate(10.03 -401.58)" style="fill:none;stroke:#000000;stroke-miterlimit:10;stroke-width:2px"/>
</svg>
