<svg xmlns="http://www.w3.org/2000/svg" viewBox="0 0 2440 646">
  <path style="fill: hsla(198.9, 56%, 44%, 1);"
        d="M1293.7 19.05v-.1l13.55 10.35 2.15.15 30.35-20.4 9.25-.5 8.35 8.75 12.9 12.15 7.15-3.2 14.35 23.5 4.65-1.05 6.8-20.7 7.15 3.35 15.75-21.7 13.6 31.95 8.25-4.65 13.1 19.85 7.45 9.6 7.8-9.75 2.8-16.65 18.6-29.75 24.95-.6 4.35 7.85 12.25 15.8 5.7-16.65 17.9-8.3 40.1 37.7 3.6-.3 4.3-15.35V11.25l16.45 2.2 8.05-2.8 21.7 47.35 11.7 18.1 8.9-14.55.5-17 9.3-11.1-.7-3.35L1707.7 11l25.6-1.05 27.2 5.45 19.2-4.95 15.9 10.05 4.3 16.75 16.45 32.45 16.45-22.85 1.8-13.4 25.4 17.1 36.55-38.5 8.95 9.7 20.4 12.15 19.85-22.35 21.7 10.7-2.9 7.4 22.2 21.5 16.5-15.65 20.75-1.25 6.45 9.55 6.45 2.25 11.45-2.25 26.5 37.4-2.25 20.85 6.25 13.95 12.45-13.7 9.5 9.15 6.75 13 1.65-13.8 8.6-37.1 11.45 3.8 11.45-23.3-4.3-16.3 24.35-27.15 31.5 24.6 22.9-21.9 4.4 6 21.4 19.55 2.85.2 21.85-30.35 29.5 26.7-2.85 18.7 18.6 26.65 11.45 25.85-2.85 16.55 15.05 28.4h1.05l15.4-48.45 8.95-52.75 19.7 20 22.9-29.1L2440 0H0l40.1 69.5L63 115l19.7-31.25 8.95 82.5L107.4 244l15.75-46.4-2.85-25.85 11.45-40.5 18.6-41.65-2.85-29.25L177 18.5 198.85 66l2.85-.25 21.4-30.6 4.4-9.4L250.4 60l31.5-38.5L306.25 64l-4.3 25.5L313.4 126l11.45-6 8.6 58.1 1.65 21.6 6.75-20.35 9.5-14.35 12.45 21.45 6.25-21.85-2.25-32.6 26.5-58.5 11.45 3.5 6.45-3.5 6.45-15 20.8 2L455.9 85l22.2-33.65-2.85-11.6L496.9 23l19.85 35 20.4-19.05 8.95-15.2L582.65 84l25.4-26.75 1.8 21L626.3 114l16.5-50.75L647.05 37l15.9-15.75 19.2 7.75 27.2-8.5 21.65 1L755.9 52l-.7 5.3 9.3 17.3.5 26.65 8.9 22.75 11.7-28.35 18.2-65.15 3.5-8.95 8.05 4.45 16.45-3.5 12.45 17.05 11.4 26.05 3.6.5L879.8 18l17.9 13 8.7 26L920 20l20.65-.5 22.9 48 2.8 26.1 7.8 15.2 7.45-15 13.1-31.05 8.25 7.25 13.6-50 15.75 34 7.15-5.25 8.6 34.25 3.85-.25L1065.25 46l7.15 5 12.9-19 8.35-13.7 9.25.75 14.75 13.75 15.6 18.2 2.15-.25 13.55-16.15 4.35 13.15 6.4 53.3 4.85 25.45 1 23.7 4.2 34.8 11.5-33.5 13.6-57 5.7 3.5 12.2-49.25L1227 24.9l2.9 3.1 12.2 31.5 5.7-2.25 9.75 24.9 3.85 11.5 11.5 21.45 4.2-22.25 1-15.15 4.9-16.25 4.75-25.55 5.95-16.85m-827.35 625.1h-.75l.3 1.95z"
  />
</svg>
