<svg xmlns="http://www.w3.org/2000/svg" viewBox="0 0 2440 295">
  <path style="fill: hsla(198.9, 56%, 44%, 1);" d="M0 295.543v-99l24.817 39.498L53 228.543l25-42 9-110 9 25 1 61 18 26 2 20 11 46 47.26 25.892 27.925-48.277a10.123 10.123 0 0118.619.431l12.373 30.985 5.624 9.544S269 279.543 288 277.543s44-4 44-4l8.445-39.317L351 214.543l-1.017-44.323 14.233 7.06 10.991-59.013 2.109-21.952 8.626 20.68L399 212.542l16 11 16.982-91.597L438 166.543l14.974 58.06 14.634-3.58L490 253.544l20.613-15.738 21.088-24.894L544 238.543l12.367 20.338L584.1 275.9l25.368-35.552 26.072 19.327L668 273.543l25.69-59.678L717 261.543l11.452-41.792 21.024-36.347 21.023 51.617 5.495 26.644 20.321 15.986s15.685-8.108 30.538-7.874 28.762 8.67 28.762 8.67l32.718-1.67 26.774-30.383 10.991-22.985.64-27.041 11.373-23.144 14.953 28.79 27.733 75.319 10.288-4.454 12.915 3.664 15-32 10 17 12-43 32.454 62.448 22.877-13.202 7.284-26.485 15.656 25.133 5.56 12.486 31.886-.954 23.771-47.322 3.579-26.485 9.968-15.509 9.521 15.27 16.743 31.575 10.543-7.397 17.381 50.822 20.13-34.517 9.137 5.328 8.69-32.927 5.943-1.67 18.34 37.381 9.138-5.09L1330 275.543l16.759 5.13 11.821-.795 26.42-33.335 23 27 9.8 2.674 5.2 19.326h-17l18.08-41.465 7.028-57.551 10.263-25.849 1.278-24.098 13.368-35.393 6.697 34.12 4.92 18.293 8.46 39.608 7.285-3.58 15.592 50.107 3.706 4.93 18.212-37.937 15.592-78.34 7.285 5.568 11.38-90.668L1563.845 0l11.368 55.355 7.278 37.7 6.198 40.482 8.18 84.782 5.56 20.918 17.317-25.69 2.747-.397 13.509 35.393 25.28 15.428 11.821 1.193 19.899-16.62 6.687-34.345 9.71 6.904 17.061-58.457 4.92-.398 10.992 54.48 6.63-11.185 22.636 56.917 17.381-79.533 10.544 11.532 16.742-49.39 9.697-68.526 9.793 68.844 3.579 41.517 29.266 76.352 26.391-.796 17.381-58.854 11.12 41.357 22.876 20.679L1970 138.543l7.27 51.383 14.57 41.437 15.91 27.12 21.024-5.567 10.288 7.079 7.938-14.452 19.795-103.417 14.953-45.095 11.374 36.187.64 42.392L2105 236.543l31.576 23.531 27.669 1.59 34.762-13.52 24.538 12.328 20.32-25.053L2265 99.543l26.408 70.26 2.3 33.405S2302 246.543 2319 266.543c14 9 66 8 66 8l25.391-72.528L2440 256.543v39"/>
</svg>
