<svg id="Layer_2" data-name="Layer 2" xmlns="http://www.w3.org/2000/svg" viewBox="0 0 1898.6265 98.9531"><title>stones</title><path d="M8.1124,95.9336C17.47,93.88,15.689,78.5791,6.1832,80.6655-3.2431,82.7583-1.3276,98.042,8.1124,95.9336Z" transform="translate(0 0.2831)" style="fill:#202020"/><line x1="28.7571" y1="80.5204" x2="25.5624" y2="81.1899" style="fill:none"/><path d="M29.6446,74.187c-8.1025-2.2516-14.7532,7.9464-6.5091,12.6029C31.5762,91.0891,40.5183,76.8392,29.6446,74.187Z" transform="translate(0 0.2831)" style="fill:#202020"/><path d="M45.9879,86.436c7.4511-1.414,6.4843-13.6611-1.166-12.2094C37.2091,75.6772,38.4805,87.8667,45.9879,86.436Z" transform="translate(0 0.2831)" style="fill:#202020"/><line x1="67.8409" y1="76.7268" x2="64.6279" y2="77.23" style="fill:none"/><path d="M67.53,71.3325c-4.8314-.5927,1.6031,1.8256,2.5329,2.4462C67.108,67.84,57.98,70.9434,58.5147,77.3457,61.0568,91.7818,83.0883,75.433,67.53,71.3325Z" transform="translate(0 0.2831)" style="fill:#202020"/><path d="M87.3267,80.1689c7.7349-.8574,7.8081-13.624-.292-12.726C79.3628,68.0882,79.1248,80.8838,87.3267,80.1689Z" transform="translate(0 0.2831)" style="fill:#202020"/><path d="M104.9513,79.8c9.0286-.4445,10.4837-15.7827.32-15.4064C95.4249,65.2153,95.5626,80.5859,104.9513,79.8Z" transform="translate(0 0.2831)" style="fill:#202020"/><line x1="127.8041" y1="68.1717" x2="124.5236" y2="68.2364" style="fill:none"/><path d="M129.9224,62.1572c-7.5789-3.8207-16.2415,4.9023-8.8856,11.1152C128.4272,79.0255,140.0369,66.9418,129.9224,62.1572Z" transform="translate(0 0.2831)" style="fill:#202020"/><path d="M143.1617,77.7339c7.38.4145,9.6851-11.6846,1.7808-12.1309C137.6411,64.7031,135.3633,77.263,143.1617,77.7339Z" transform="translate(0 0.2831)" style="fill:#202020"/><line x1="166.6325" y1="74.1673" x2="163.4231" y2="73.7008" style="fill:none"/><path d="M167.837,68.9082c-4.4763-1.9973.9843,2.21,1.7075,3.0863-.9018-6.5711-11.0883-6.1678-12.0927.1284C155.9031,86.5484,181.4019,77.2913,167.837,68.9082Z" transform="translate(0 0.2831)" style="fill:#202020"/><path d="M183.8751,83.4272c7.5913,1.688,11.7964-10.3369,3.8491-12.1406C180.5921,69.3079,175.6963,81.4071,183.8751,83.4272Z" transform="translate(0 0.2831)" style="fill:#202020"/><path d="M200.8184,88.7617c9.3487,2.3032,14.4522-12.227,5.04-14.5444C196.4439,71.9121,191.4722,86.4878,200.8184,88.7617Z" transform="translate(0 0.2831)" style="fill:#202020"/><path d="M226.2706,83.5317q-1.5836-.3382-3.1636-.706" transform="translate(0 0.2831)" style="fill:none"/><path d="M229.4942,78.3457c-2.9883-1.498-5.8506-3.0034-9.1987-1.1851C204.9073,91.4832,242.8622,94.5183,229.4942,78.3457Z" transform="translate(0 0.2831)" style="fill:#202020"/><path d="M240.0885,95.8076c7.2036,1.6609,10.8436-10.6359,3.0387-11.8841C236.2649,82.5674,231.8681,94.2542,240.0885,95.8076Z" transform="translate(0 0.2831)" style="fill:#202020"/><path d="M264.4605,92.0415c-1.0923-.0386-2.186-.0264-3.2773-.1069" transform="translate(0 0.2831)" style="fill:none"/><path d="M265.07,86.957c-4.549-1.4433,1.29,2.1047,2.0386,2.8591-1.6212-6.2489-11.1844-4.9427-12.0068,1.1237C256.6952,106.6641,279.2749,94.7979,265.07,86.957Z" transform="translate(0 0.2831)" style="fill:#202020"/><path d="M283.9307,97.9873c7.4123.0195,8.8083-13.122.3309-12.7365C277.0572,85.3864,275.238,98.37,283.9307,97.9873Z" transform="translate(0 0.2831)" style="fill:#202020"/><path d="M302.4054,97.5215c9.3369-.9724,9.3733-16.4238-.5469-15.3889C292.5748,83.2656,292.4659,98.6841,302.4054,97.5215Z" transform="translate(0 0.2831)" style="fill:#202020"/><line x1="324.1846" y1="83.3717" x2="320.9784" y2="83.9162" style="fill:none"/><path d="M325.2608,77.0713c-7.9468-2.5206-14.8975,7.33-6.9808,12.3178C326.5794,94.1064,336.0467,80.1217,325.2608,77.0713Z" transform="translate(0 0.2831)" style="fill:#202020"/><path d="M341.296,89.6982c7.5234-1.3022,6.6616-13.5415-.9824-12.2255C332.7423,78.7974,333.6959,91.0283,341.296,89.6982Z" transform="translate(0 0.2831)" style="fill:#202020"/><path d="M363.2916,79.9331c-1.0733.1509-2.1489.2861-3.2188.4624" transform="translate(0 0.2831)" style="fill:none"/><path d="M363.0264,74.8242c-4.84-.6786,1.5966,1.8546,2.5144,2.4887-17.5331-14.49-11.151,23.6791.755,4.0693C357.7485,92.0736,377.035,76.7138,363.0264,74.8242Z" transform="translate(0 0.2831)" style="fill:#202020"/><path d="M382.7647,83.8442c7.2069-.4021,8.32-13.54-.2159-12.7379C374.5147,72.019,374.9259,84.7349,382.7647,83.8442Z" transform="translate(0 0.2831)" style="fill:#202020"/><path d="M400.5006,83.4561c9.43-.6695,9.9966-16.0757.2-15.3794C390.9473,68.8984,391.0186,84.3262,400.5006,83.4561Z" transform="translate(0 0.2831)" style="fill:#202020"/><line x1="423.1702" y1="71.3089" x2="419.9064" y2="71.4803" style="fill:none"/><path d="M425.0045,65.1719c-7.6707-3.4263-15.8654,5.5252-8.4033,11.4555C424.2558,82.18,435.31,69.51,425.0045,65.1719Z" transform="translate(0 0.2831)" style="fill:#202020"/><path d="M439.1886,79.8774c7.5913-.1572,8.5874-12.3925.8081-12.2309C432.2515,67.8687,431.5509,80.1387,439.1886,79.8774Z" transform="translate(0 0.2831)" style="fill:#202020"/><line x1="462.3739" y1="73.7246" x2="459.119" y2="73.7491" style="fill:none"/><path d="M462.8326,68.34c-4.6778-1.3016,1.315,2.0523,2.1353,2.8039-2.04-6.3268-11.4644-4.5841-11.9541,1.762C453.3791,87.7436,477.546,74.671,462.8326,68.34Z" transform="translate(0 0.2831)" style="fill:#202020"/><path d="M481.2481,79.8779c7.9136.1084,9.3911-12.5537,1.3325-12.664C474.566,67.1113,473.2789,79.7754,481.2481,79.8779Z" transform="translate(0 0.2831)" style="fill:#202020"/><path d="M499.0684,81.52c9.5708.229,11.51-15.0371,1.7774-15.292C491.1622,66.0176,489.4351,81.3105,499.0684,81.52Z" transform="translate(0 0.2831)" style="fill:#202020"/><line x1="522.8573" y1="71.4779" x2="519.5985" y2="71.3718" style="fill:none"/><path d="M525.13,65.5137c-7.3308-4.073-16.171,4.244-9.2837,10.7056C523.0373,82.4371,535.0787,70.6308,525.13,65.5137Z" transform="translate(0 0.2831)" style="fill:#202020"/><path d="M538.25,81.1665c7.6641.2734,9.2925-11.8853,1.5679-12.1641C532.1358,68.7305,530.54,80.8936,538.25,81.1665Z" transform="translate(0 0.2831)" style="fill:#202020"/><line x1="561.8325" y1="76.1949" x2="558.5758" y2="76.078" style="fill:none"/><path d="M562.4864,70.8345c-4.6105-1.4994,1.2439,2.1036,2.0249,2.883-1.8105-6.3889-11.1977-5.0681-12.0137,1.2522C552.1833,89.8416,577.0137,77.7624,562.4864,70.8345Z" transform="translate(0 0.2831)" style="fill:#202020"/><path d="M580.5875,82.8818c7.9819.2593,9.5928-12.3759,1.5864-12.6362C574.2188,69.9873,572.5572,82.6211,580.5875,82.8818Z" transform="translate(0 0.2831)" style="fill:#202020"/><path d="M598.5,84.7705c9.6489.2671,11.5434-15.0137,1.8667-15.2812C590.754,69.2173,588.7911,84.4785,598.5,84.7705Z" transform="translate(0 0.2831)" style="fill:#202020"/><line x1="622.3286" y1="74.7124" x2="619.0725" y2="74.6224" style="fill:none"/><path d="M624.5533,68.73c-7.3418-4.0145-16.1035,4.3257-9.21,10.7578C622.5814,85.6808,634.54,73.7775,624.5533,68.73Z" transform="translate(0 0.2831)" style="fill:#202020"/><path d="M637.8336,84.2319c7.687.1783,9.1255-12.0039,1.4111-12.1826C631.5787,71.8716,630.1,84.0527,637.8336,84.2319Z" transform="translate(0 0.2831)" style="fill:#202020"/><line x1="661.3527" y1="78.9089" x2="658.0943" y2="78.8471" style="fill:none"/><path d="M661.9239,73.5381c-4.6338-1.421,1.2769,2.0825,2.0709,2.8488-1.9146-6.3571-11.2755-4.8791-11.9923,1.4564C651.9279,92.7177,676.5563,80.2189,661.9239,73.5381Z" transform="translate(0 0.2831)" style="fill:#202020"/><path d="M680.2154,85.314c7.981.1206,9.398-12.54,1.3858-12.6617C673.64,72.5239,672.1856,85.1729,680.2154,85.314Z" transform="translate(0 0.2831)" style="fill:#202020"/><path d="M698.1485,86.9082c9.647.1445,11.3179-15.1587,1.6353-15.3042C690.1661,71.459,688.4405,86.7617,698.1485,86.9082Z" transform="translate(0 0.2831)" style="fill:#202020"/><line x1="721.8206" y1="76.4952" x2="718.5632" y2="76.4575" style="fill:none"/><path d="M723.9654,70.4844c-7.3955-3.9128-16.0461,4.5785-9.0566,10.8979C722.2373,87.4477,734.0189,75.4056,723.9654,70.4844Z" transform="translate(0 0.2831)" style="fill:#202020"/><path d="M737.4581,85.8188c7.6855.064,8.9653-12.1376,1.2466-12.2021C731.0338,73.55,729.7257,85.752,737.4581,85.8188Z" transform="translate(0 0.2831)" style="fill:#202020"/><line x1="760.8978" y1="80.1943" x2="757.6391" y2="80.167" style="fill:none"/><path d="M761.4054,74.8164c-4.6514-1.3666,1.3033,2.0628,2.107,2.82-1.9938-6.3219-11.3385-4.755-11.9728,1.5907C751.662,94.12,776.1169,81.3075,761.4054,74.8164Z" transform="translate(0 0.2831)" style="fill:#202020"/><path d="M779.8365,86.353c7.979.0435,9.2529-12.63,1.2378-12.6743C773.11,73.6348,771.8087,86.3091,779.8365,86.353Z" transform="translate(0 0.2831)" style="fill:#202020"/><path d="M797.7808,87.7505c9.6426.0278,11.1553-15.2949,1.4678-15.3228C789.6251,72.4,788.0772,87.7222,797.7808,87.7505Z" transform="translate(0 0.2831)" style="fill:#202020"/><line x1="821.3363" y1="77.0945" x2="818.0783" y2="77.0924" style="fill:none"/><path d="M823.4244,71.0605c-7.4373-3.826-16.0018,4.7342-8.9468,10.9922C821.8611,88.0465,833.53,75.8714,823.4244,71.0605Z" transform="translate(0 0.2831)" style="fill:#202020"/><path d="M837.064,86.26c7.6832.0048,8.854-12.2066,1.1333-12.2115C830.524,74.0435,829.3336,86.2549,837.064,86.26Z" transform="translate(0 0.2831)" style="fill:#202020"/><line x1="860.4467" y1="80.4229" x2="857.1879" y2="80.427" style="fill:none"/><path d="M860.9122,75.0415c-4.6635-1.3268,1.32,2.0556,2.13,2.8058-2.0454-6.317-11.3809-4.65-11.959,1.6991C851.328,94.42,875.6753,81.4209,860.9122,75.0415Z" transform="translate(0 0.2831)" style="fill:#202020"/><path d="M879.4327,86.44c7.9751-.0229,9.16-12.7075,1.1421-12.6841C872.6075,73.7793,871.4078,86.4639,879.4327,86.44Z" transform="translate(0 0.2831)" style="fill:#202020"/><path d="M897.3805,87.7119c9.6376-.0356,11.0551-15.3716,1.3637-15.331C889.1173,72.4087,887.6807,87.74,897.3805,87.7119Z" transform="translate(0 0.2831)" style="fill:#202020"/><line x1="920.8632" y1="76.9032" x2="917.605" y2="76.9168" style="fill:none"/><path d="M922.9185,70.8594c-7.4608-3.7951-15.9769,4.827-8.8828,11.04C921.4584,87.848,933.0489,75.6185,922.9185,70.8594Z" transform="translate(0 0.2831)" style="fill:#202020"/><path d="M936.6407,85.9834c7.6792-.04,8.7935-12.2573,1.0708-12.2178C930.0352,73.8052,928.9137,86.0229,936.6407,85.9834Z" transform="translate(0 0.2831)" style="fill:#202020"/><line x1="959.9906" y1="80.0393" x2="956.7321" y2="80.0581" style="fill:none"/><path d="M960.4347,74.6558c-4.6694-1.3064,1.3277,2.0493,2.1416,2.796-2.0713-6.3073-11.4034-4.5988-11.9517,1.75C950.934,94.0762,975.2294,80.9692,960.4347,74.6558Z" transform="translate(0 0.2831)" style="fill:#202020"/><path d="M978.9967,85.9844c7.9716-.0469,9.1191-12.7359,1.1-12.6875C972.1265,73.3428,970.9747,86.0308,978.9967,85.9844Z" transform="translate(0 0.2831)" style="fill:#202020"/><path d="M996.942,87.1987c9.6328-.0586,11.0185-15.3945,1.3247-15.3354C988.6348,71.9219,987.2472,87.2578,996.942,87.1987Z" transform="translate(0 0.2831)" style="fill:#202020"/><line x1="1020.3979" y1="76.3419" x2="1017.1395" y2="76.362" style="fill:none"/><path d="M1022.4439,70.2939c-7.4685-3.78-15.972,4.8561-8.8642,11.0567C1021.01,87.2848,1032.5833,75.0323,1022.4439,70.2939Z" transform="translate(0 0.2831)" style="fill:#202020"/><path d="M1036.1876,85.4c7.6767-.0474,8.7807-12.2661,1.0566-12.2187C1029.5665,73.2285,1028.4625,85.4478,1036.1876,85.4Z" transform="translate(0 0.2831)" style="fill:#202020"/><line x1="1059.5294" y1="79.4359" x2="1056.271" y2="79.456" style="fill:none"/><path d="M1059.9708,74.0522c-4.6706-1.304,1.33,2.0492,2.1436,2.7956-2.0743-6.3068-11.4078-4.5939-11.9507,1.7572C1050.4853,93.4782,1074.76,80.3573,1059.9708,74.0522Z" transform="translate(0 0.2831)" style="fill:#202020"/><path d="M1078.5367,85.3735c7.9707-.0493,9.1172-12.7373,1.0967-12.688C1071.6627,72.7349,1070.5162,85.4229,1078.5367,85.3735Z" transform="translate(0 0.2831)" style="fill:#202020"/><path d="M1096.4805,86.5859c9.6324-.0595,11.0181-15.3955,1.3233-15.3354C1088.172,71.31,1086.7867,86.646,1096.4805,86.5859Z" transform="translate(0 0.2831)" style="fill:#202020"/><line x1="1119.9358" y1="75.7278" x2="1116.6773" y2="75.748" style="fill:none"/><path d="M1121.9805,69.68c-7.4686-3.78-15.9708,4.8578-8.8632,11.0571C1120.5484,86.6706,1132.1207,74.4173,1121.9805,69.68Z" transform="translate(0 0.2831)" style="fill:#202020"/><path d="M1135.7281,84.7817c7.6787-.05,8.7749-12.269,1.0518-12.2192C1129.1036,72.6123,1128.002,84.832,1135.7281,84.7817Z" transform="translate(0 0.2831)" style="fill:#202020"/><line x1="1159.0686" y1="78.8015" x2="1155.81" y2="78.8246" style="fill:none"/><path d="M1159.5045,73.417c-4.6721-1.3,1.3328,2.0483,2.147,2.7936-2.0816-6.3048-11.41-4.5832-11.9493,1.7684C1150.0335,92.8494,1174.31,79.7121,1159.5045,73.417Z" transform="translate(0 0.2831)" style="fill:#202020"/><path d="M1178.088,84.7124c7.9746-.0635,9.0913-12.7539,1.0732-12.69C1171.1939,72.0859,1170.064,84.7764,1178.088,84.7124Z" transform="translate(0 0.2831)" style="fill:#202020"/><path d="M1196.0426,85.8843c9.6391-.0879,10.97-15.4278,1.2807-15.3394C1187.6969,70.6328,1186.3419,85.9731,1196.0426,85.8843Z" transform="translate(0 0.2831)" style="fill:#202020"/><line x1="1219.4635" y1="74.9449" x2="1216.2055" y2="74.9794" style="fill:none"/><path d="M1221.4835,68.8877c-7.4807-3.7467-15.9458,4.9284-8.8169,11.0957C1220.1238,85.885,1231.643,73.5837,1221.4835,68.8877Z" transform="translate(0 0.2831)" style="fill:#202020"/><path d="M1235.3014,83.9287c7.6831-.0947,8.7089-12.32.9892-12.2251C1228.6182,71.7954,1227.5709,84.0161,1235.3014,83.9287Z" transform="translate(0 0.2831)" style="fill:#202020"/><line x1="1258.6108" y1="77.8124" x2="1255.3523" y2="77.8594" style="fill:none"/><path d="M1259.0133,72.4253c-4.6786-1.2661,1.3454,2.038,2.1646,2.7774-2.1231-6.2847-11.4347-4.5059-11.9371,1.8442C1249.6626,91.9276,1273.8629,78.6176,1259.0133,72.4253Z" transform="translate(0 0.2831)" style="fill:#202020"/><path d="M1277.6788,83.5913c7.979-.1333,8.9892-12.833.9761-12.6992C1270.6915,71.0156,1269.6505,83.709,1277.6788,83.5913Z" transform="translate(0 0.2831)" style="fill:#202020"/><path d="M1295.6505,84.6138c9.645-.1729,10.8286-15.5308,1.146-15.3482C1287.1768,69.4263,1285.9459,84.7759,1295.6505,84.6138Z" transform="translate(0 0.2831)" style="fill:#202020"/><line x1="1318.9694" y1="73.4551" x2="1315.7125" y2="73.5182" style="fill:none"/><path d="M1320.93,67.3789c-7.518-3.6771-15.89,5.0748-8.7046,11.1748C1319.7417,84.3964,1331.1376,71.9662,1320.93,67.3789Z" transform="translate(0 0.2831)" style="fill:#202020"/><path d="M1334.9073,82.2612c7.686-.1714,8.5679-12.4062.8525-12.2339C1328.0924,70.1982,1327.1749,82.4341,1334.9073,82.2612Z" transform="translate(0 0.2831)" style="fill:#202020"/><line x1="1358.1455" y1="75.8706" x2="1354.8874" y2="75.9537" style="fill:none"/><path d="M1358.4835,70.48c-4.6945-1.2139,1.3724,2.0239,2.1993,2.7535-2.2032-6.2652-11.4864-4.3726-11.9137,1.9877C1349.3734,90.0827,1373.4066,76.5028,1358.4835,70.48Z" transform="translate(0 0.2831)" style="fill:#202020"/><path d="M1377.296,81.3931c7.9814-.2315,8.8091-12.9419.8008-12.71C1370.1407,68.9146,1369.2662,81.6265,1377.296,81.3931Z" transform="translate(0 0.2831)" style="fill:#202020"/><path d="M1395.2906,82.16c9.6484-.3169,10.5918-15.6831.9175-15.3653C1386.5982,67.11,1385.5821,82.479,1395.2906,82.16Z" transform="translate(0 0.2831)" style="fill:#202020"/><line x1="1418.4325" y1="70.6382" x2="1415.1776" y2="70.7583" style="fill:none"/><path d="M1420.2974,64.53c-7.5716-3.5507-15.8,5.3537-8.5219,11.3242C1419.3881,81.5571,1430.576,68.9613,1420.2974,64.53Z" transform="translate(0 0.2831)" style="fill:#202020"/><path d="M1434.523,79.1855c7.6866-.3178,8.3487-12.5673.6416-12.249C1427.5055,67.2515,1426.79,79.5034,1434.523,79.1855Z" transform="translate(0 0.2831)" style="fill:#202020"/><line x1="1457.643" y1="72.3771" x2="1454.3875" y2="72.5266" style="fill:none"/><path d="M1457.8883,66.98c-4.7145-1.1178,1.4055,1.9947,2.2481,2.7085-2.317-6.2173-11.5626-4.1377-11.8751,2.2153C1449.1333,86.7733,1472.9186,72.7013,1457.8883,66.98Z" transform="translate(0 0.2831)" style="fill:#202020"/><path d="M1476.8956,77.5542c7.97-.3774,8.5781-13.1079.5713-12.7207C1469.5142,65.1987,1468.8717,77.9229,1476.8956,77.5542Z" transform="translate(0 0.2831)" style="fill:#202020"/><path d="M1494.8839,78.0078c9.6269-.4692,10.35-15.85.6709-15.3779C1485.939,63.0986,1485.1954,78.48,1494.8839,78.0078Z" transform="translate(0 0.2831)" style="fill:#202020"/><line x1="1517.8451" y1="66.1621" x2="1514.5899" y2="66.3209" style="fill:none"/><path d="M1519.6456,60.0322c-7.6243-3.4581-15.7551,5.53-8.3867,11.4243C1518.9342,77.0693,1529.977,64.3335,1519.6456,60.0322Z" transform="translate(0 0.2831)" style="fill:#202020"/><path d="M1534.0108,74.541c7.6577-.353,8.272-12.6064.5479-12.25C1526.8848,62.6572,1526.2994,74.9165,1534.0108,74.541Z" transform="translate(0 0.2831)" style="fill:#202020"/><line x1="1557.0706" y1="67.6507" x2="1553.8161" y2="67.8008" style="fill:none"/><path d="M1557.317,62.2529c-4.7174-1.1167,1.4041,1.9938,2.2486,2.7081-2.3116-6.22-11.5851-4.1348-11.8736,2.2328C1548.5957,82.0378,1572.3273,67.97,1557.317,62.2529Z" transform="translate(0 0.2831)" style="fill:#202020"/><path d="M1576.2706,72.9106c7.9438-.3232,8.6968-13.0454.6684-12.7187C1568.9591,60.5171,1568.275,73.2363,1576.2706,72.9106Z" transform="translate(0 0.2831)" style="fill:#202020"/><path d="M1594.2027,73.5562c9.586-.3121,10.605-15.68.8858-15.3638C1585.4273,58.5083,1584.5509,73.8716,1594.2027,73.5562Z" transform="translate(0 0.2831)" style="fill:#202020"/><line x1="1617.3494" y1="62.112" x2="1614.0888" y2="62.1904" style="fill:none"/><path d="M1619.2862,56.0337c-7.5546-3.6807-15.8993,5.2173-8.6376,11.2383C1618.2118,72.9989,1629.5139,60.5947,1619.2862,56.0337Z" transform="translate(0 0.2831)" style="fill:#202020"/><path d="M1633.275,70.9248c7.64-.1655,8.645-12.4019.8984-12.2344C1626.4708,58.8569,1625.5831,71.0913,1633.275,70.9248Z" transform="translate(0 0.2831)" style="fill:#202020"/><line x1="1656.5214" y1="64.7978" x2="1653.2651" y2="64.8236" style="fill:none"/><path d="M1656.9581,59.4136c-4.6786-1.2957,1.3268,2.0447,2.1471,2.7916-2.0724-6.3033-11.4542-4.5734-11.9479,1.7782C1647.5567,78.8632,1671.72,65.6666,1656.9581,59.4136Z" transform="translate(0 0.2831)" style="fill:#202020"/><path d="M1675.4522,70.8042c7.916.0679,9.2862-12.6021,1.2285-12.6709C1668.6671,58.0649,1667.4805,70.7354,1675.4522,70.8042Z" transform="translate(0 0.2831)" style="fill:#202020"/><path d="M1693.2784,72.2793c9.1788.3263,11.74-14.8694,1.6651-15.3137C1685.2476,56.8833,1683.6549,72.1973,1693.2784,72.2793Z" transform="translate(0 0.2831)" style="fill:#202020"/><line x1="1717.0058" y1="62.1658" x2="1713.7431" y2="62.0748" style="fill:none"/><path d="M1719.2916,56.1924c-7.345-4.0276-16.2127,4.2659-9.293,10.7471C1717.1709,73.1175,1729.2412,61.2633,1719.2916,56.1924Z" transform="translate(0 0.2831)" style="fill:#202020"/><path d="M1732.314,71.9521c7.6.3809,9.462-11.7534,1.7017-12.142C1726.296,59.4233,1724.6593,71.5684,1732.314,71.9521Z" transform="translate(0 0.2831)" style="fill:#202020"/><line x1="1755.9163" y1="67.4413" x2="1752.6706" y2="67.1971" style="fill:none"/><path d="M1756.7325,62.1079c-4.576-1.6807,1.175,2.1518,1.9321,2.9617-1.3806-6.4412-11.3184-5.4074-12.0453.8819C1745.853,80.5349,1771.0433,69.6781,1756.7325,62.1079Z" transform="translate(0 0.2831)" style="fill:#202020"/><path d="M1774.2667,74.8936c7.1964.9939,10.7606-11.6092,2.2655-12.5457C1768.5206,61.7446,1766.3414,74.2983,1774.2667,74.8936Z" transform="translate(0 0.2831)" style="fill:#202020"/><path d="M1791.8336,77.9644c9.4531.976,12.7627-14.09,3.0278-15.0957C1785.1754,61.8682,1782.3053,76.98,1791.8336,77.9644Z" transform="translate(0 0.2831)" style="fill:#202020"/><line x1="1816.4017" y1="70.0952" x2="1813.1638" y2="69.6598" style="fill:none"/><path d="M1819.24,64.39c-6.9364-4.7864-16.563,2.5167-10.2935,9.7169C1815.4725,81.0223,1828.6334,70.449,1819.24,64.39Z" transform="translate(0 0.2831)" style="fill:#202020"/><path d="M1830.6163,81.2612c7.4717,1.2622,10.6377-10.5888,2.9546-11.8842C1826.3434,68.054,1822.7265,79.9483,1830.6163,81.2612Z" transform="translate(0 0.2831)" style="fill:#202020"/><line x1="1854.5522" y1="79.3942" x2="1851.3437" y2="78.8529" style="fill:none"/><path d="M1855.9366,74.1758c-4.3668-2.0886.91,2.2291,1.5936,3.1166-.8514-6.5522-10.4774-6.4985-12.0946-.3339C1843.124,91.6647,1869.2575,82.8538,1855.9366,74.1758Z" transform="translate(0 0.2831)" style="fill:#202020"/><path d="M1871.8223,89.0249c7.6949,1.5859,11.6919-10.5361,3.76-12.1724C1867.6881,75.2246,1864.068,87.4263,1871.8223,89.0249Z" transform="translate(0 0.2831)" style="fill:#202020"/><path d="M381.6534,59.2515c8.7056-.6192,8.9907-16,.1865-15.3809C373.0982,44.5059,372.8839,59.8892,381.6534,59.2515Z" transform="translate(0 0.2831)" style="fill:#202020"/><line x1="402.198" y1="47.091" x2="399.2419" y2="47.2885" style="fill:none"/><path d="M403.7105,40.9419c-7.5889-3.39-13.96,6.1744-7.37,11.5188C403.9954,57.9724,412.9428,44.7,403.7105,40.9419Z" transform="translate(0 0.2831)" style="fill:#202020"/><path d="M417.0426,55.3223c6.9287-.4092,7.3232-12.6548.2929-12.2539C410.3507,43.5029,410.065,55.7563,417.0426,55.3223Z" transform="translate(0 0.2831)" style="fill:#202020"/><line x1="437.8722" y1="48.3555" x2="434.9174" y2="48.5027" style="fill:none"/><path d="M438.0543,42.96c-4.3465-1.1181,1.3657,2.0286,2.0663,2.709-2.1454-6.2178-10.5942-4.148-10.77,2.228C430.0818,62.5374,451.8185,48.9184,438.0543,42.96Z" transform="translate(0 0.2831)" style="fill:#202020"/><path d="M455.31,53.6592c7.1782-.2373,7.9282-12.95.604-12.708C448.6329,41.2236,448.0777,53.9531,455.31,53.6592Z" transform="translate(0 0.2831)" style="fill:#202020"/><path d="M471.5284,54.501c8.6533-.1939,9.811-15.5513.9365-15.3526C463.6378,39.3555,462.8092,54.7051,471.5284,54.501Z" transform="translate(0 0.2831)" style="fill:#202020"/><line x1="492.686" y1="43.5009" x2="489.7186" y2="43.5" style="fill:none"/><path d="M494.5777,37.4663c-7.3815-3.9077-14.3688,5.3105-8.081,11.0384C493.8,54.4292,503.5483,41.8119,494.5777,37.4663Z" transform="translate(0 0.2831)" style="fill:#202020"/><path d="M506.89,52.7319c6.8926.0938,8.2666-12.1,1.1944-12.1967C501.0455,40.439,499.9454,52.6372,506.89,52.7319Z" transform="translate(0 0.2831)" style="fill:#202020"/><line x1="528.1734" y1="47.4582" x2="525.2202" y2="47.3309" style="fill:none"/><path d="M528.8062,42.1c-4.2415-1.5191,1.1817,2.1474,1.82,2.89-1.6069-7.5377-12.5451-3.5937-10.8647,3.2415C522.0728,59.7752,541.0487,48.7651,528.8062,42.1Z" transform="translate(0 0.2831)" style="fill:#202020"/><path d="M544.9537,54.3862c6.8634.5769,9.4332-11.9419,1.8789-12.591C539.5191,41.3545,537.7774,53.9536,544.9537,54.3862Z" transform="translate(0 0.2831)" style="fill:#202020"/><path d="M560.9034,56.9028c8.2519.9371,11.7662-14.1148,2.646-15.1491C554.6944,41.0122,552.2711,56.2227,560.9034,56.9028Z" transform="translate(0 0.2831)" style="fill:#202020"/><line x1="583.1932" y1="48.4495" x2="580.2445" y2="48.1087" style="fill:none"/><path d="M585.7623,42.6816c-6.8713-4.7445-14.9162,3.5463-9.3447,9.9921C582.9374,59.4517,594.1518,48.0536,585.7623,42.6816Z" transform="translate(0 0.2831)" style="fill:#202020"/><path d="M596.1607,59.312c6.8526.9258,9.6289-11.0151,2.6358-11.97C591.83,46.4258,589.2608,58.4062,596.1607,59.312Z" transform="translate(0 0.2831)" style="fill:#202020"/><line x1="617.9813" y1="56.5185" x2="615.0544" y2="56.0867" style="fill:none"/><path d="M619.1554,51.2559c-4.0448-1.9452.9462,2.2609,1.4987,3.0642-.89-6.531-9.5813-6.1263-10.9983.0886C607.51,68.8842,631.5017,59.8126,619.1554,51.2559Z" transform="translate(0 0.2831)" style="fill:#202020"/><path d="M634.0435,65.0874c7.1455,1.1084,10.2027-11.25,2.9942-12.3682C629.8678,51.6123,626.857,63.981,634.0435,65.0874Z" transform="translate(0 0.2831)" style="fill:#202020"/><path d="M57.41,59.522c9.8482-.0669,11.2579-15.4038,1.3458-15.3365C48.9073,44.252,47.4981,59.5889,57.41,59.522Z" transform="translate(0 0.2831)" style="fill:#202020"/><line x1="81.3858" y1="48.6461" x2="78.0543" y2="48.6687" style="fill:none"/><path d="M83.4752,42.5967c-7.4933-3.7582-16.3831,4.7558-9.0581,11.064C81.8755,59.5816,93.8976,47.4269,83.4752,42.5967Z" transform="translate(0 0.2831)" style="fill:#202020"/><path d="M97.5343,57.6919c7.8491-.0532,8.9721-12.273,1.0742-12.22C90.7589,45.5259,89.6358,57.7456,97.5343,57.6919Z" transform="translate(0 0.2831)" style="fill:#202020"/><line x1="121.3971" y1="51.7097" x2="118.0655" y2="51.7323" style="fill:none"/><path d="M121.8458,46.3257c-4.765-1.3,1.3431,2.04,2.1935,2.7941-2.1237-6.3053-11.6662-4.5851-12.2184,1.7664C112.2385,65.8151,136.9422,52.55,121.8458,46.3257Z" transform="translate(0 0.2831)" style="fill:#202020"/><path d="M140.8028,57.6553c8.0957-.0093,9.41-12.68,1.1709-12.6851C133.7926,45,132.6383,57.6846,140.8028,57.6553Z" transform="translate(0 0.2831)" style="fill:#202020"/><path d="M159.0064,59.05c9.6831.1782,11.6909-15.1152,1.6636-15.2993C150.7115,43.6357,149.212,58.9707,159.0064,59.05Z" transform="translate(0 0.2831)" style="fill:#202020"/><line x1="183.2766" y1="49.0934" x2="179.934" y2="48.9394" style="fill:none"/><path d="M185.7428,43.1973c-3.3868-1.0786-6.6939-1.9864-9.78.3911C163.3388,60.3339,201.8057,56.7632,185.7428,43.1973Z" transform="translate(0 0.2831)" style="fill:#202020"/><path d="M198.54,59.3657c7.585.77,10.2954-11.23,2.2866-12.0425C192.8458,46.6143,190.8516,58.7437,198.54,59.3657Z" transform="translate(0 0.2831)" style="fill:#202020"/><path d="M222.7159,56.333c-1.085-.2134-2.1846-.3476-3.2764-.5234" transform="translate(0 0.2831)" style="fill:none"/><path d="M224.0528,51.395c-4.3291-1.6022.6045,1.6315,1.6708,3.1573-.92-6.6729-10.9686-6.4976-12.3514-.2574C213.7908,69.991,236.9307,60.52,224.0528,51.395Z" transform="translate(0 0.2831)" style="fill:#202020"/><path d="M240.0528,66.4526c7.2639,2.2432,12.4689-10.0533,4.2922-11.9989C236.9964,51.98,232.0128,64.4313,240.0528,66.4526Z" transform="translate(0 0.2831)" style="fill:#202020"/><path d="M256.9244,72.7305c8.8942,3.5758,15.4411-11.3581,5.7941-14.2643C253.5924,55.6479,247.2633,69.6934,256.9244,72.7305Z" transform="translate(0 0.2831)" style="fill:#202020"/><line x1="283.0964" y1="65.5487" x2="279.8598" y2="65.6131" style="fill:none"/><path d="M284.78,59.4c-7.1681-3.386-15.1893,5.1038-8.7444,11.0692C283.7267,76.8359,295.514,63.927,284.78,59.4Z" transform="translate(0 0.2831)" style="fill:#202020"/><path d="M300.4083,72.6787c7.9819-1.4849,6.5786-13.68-1.0108-12.2187C292.3691,61.3931,291.88,73.9662,300.4083,72.6787Z" transform="translate(0 0.2831)" style="fill:#202020"/><path d="M322.8106,62.1558c-1.09.1611-2.1762.3774-3.2636.5781" transform="translate(0 0.2831)" style="fill:none"/><path d="M322.4552,57.05c-4.65-.0879,1.1116,1.3407,2.6165,2.4255-2.9375-5.9664-12.5652-2.5112-11.7526,3.8438C318.8949,78.043,337.5457,61.243,322.4552,57.05Z" transform="translate(0 0.2831)" style="fill:#202020"/><path d="M341.7457,66.8237c7.299.4449,10.0282-12.5077,1.5743-12.6563C335.6037,53.2873,333.5956,66.543,341.7457,66.8237Z" transform="translate(0 0.2831)" style="fill:#202020"/><path d="M657.547,68.4033c10.0249-1.3847,9.5332-16.789-.627-15.3857C646.8331,54.4219,647.4405,69.8188,657.547,68.4033Z" transform="translate(0 0.2831)" style="fill:#202020"/><line x1="680.6561" y1="54.506" x2="677.2405" y2="54.9397" style="fill:none"/><path d="M682.127,48.2378c-7.9444-2.8154-16.3691,6.6114-7.9662,12.11C682.2972,65.2765,693.4741,51.86,682.127,48.2378Z" transform="translate(0 0.2831)" style="fill:#202020"/><path d="M698.2081,61.6343c7.96-.855,8.0122-13.1431-.1524-12.2656C689.94,50.27,690.1881,62.5562,698.2081,61.6343Z" transform="translate(0 0.2831)" style="fill:#202020"/><line x1="722.0504" y1="53.5195" x2="718.6298" y2="53.791" style="fill:none"/><path d="M722.1554,48.1143c-5-.94,1.4854,1.92,2.4554,2.6225C721.95,44.5284,712.1616,47.13,712.17,53.47,714.0348,68.3961,737.9975,52.8863,722.1554,48.1143Z" transform="translate(0 0.2831)" style="fill:#202020"/><path d="M742.2467,58.3652c7.5173.1517,9.836-12.9151.7219-12.7233C734.4317,46.0093,733.95,58.7217,742.2467,58.3652Z" transform="translate(0 0.2831)" style="fill:#202020"/><path d="M760.8507,59.2871c8.9808.6021,12.5758-15.1264,1.5183-15.3239C753.1989,43.2141,749.9828,59.0414,760.8507,59.2871Z" transform="translate(0 0.2831)" style="fill:#202020"/><line x1="785.7934" y1="49.3553" x2="782.3397" y2="49.1605" style="fill:none"/><path d="M788.4141,43.4712c-7.3636-4.2448-17.5076,3.432-10.1192,10.4362C785.3257,60.1856,798.8481,49.2287,788.4141,43.4712Z" transform="translate(0 0.2831)" style="fill:#202020"/><path d="M801.3253,59.9824c7.0882,1.2465,11.3591-10.7761,2.6322-11.9851C796.4611,46.43,793.1277,59.1031,801.3253,59.9824Z" transform="translate(0 0.2831)" style="fill:#202020"/><line x1="826.413" y1="57.7171" x2="823.009" y2="57.1985" style="fill:none"/><path d="M827.6563,52.4648c-4.6137-2.0353,1.0375,2.2118,1.8008,3.103-1.0988-6.4838-11.1672-6.4265-12.7177-.2443C814.9562,70.3452,842.137,60.8683,827.6563,52.4648Z" transform="translate(0 0.2831)" style="fill:#202020"/><path d="M846.0631,65.9761c7.9894,1.1923,10.4971-12.3274,1.8633-12.6024C840.5119,52.6253,836.7408,65.255,846.0631,65.9761Z" transform="translate(0 0.2831)" style="fill:#202020"/><path d="M866.3253,66.6792c9.3861-.2522,10.5465-16.5075-.2767-15.3982C856.6377,51.732,855.7147,68.3966,866.3253,66.6792Z" transform="translate(0 0.2831)" style="fill:#202020"/><line x1="889.5887" y1="52.4029" x2="886.1611" y2="52.904" style="fill:none"/><path d="M891.0484,46.1157c-8.1251-2.7121-16.43,6.9131-7.82,12.2765C891.3855,63.09,902.4609,49.5681,891.0484,46.1157Z" transform="translate(0 0.2831)" style="fill:#202020"/><path d="M906.4742,60.1582c7.3414.3947,9.51-12.3848,1.1685-12.2247C900.2064,47.28,898.0789,60.0444,906.4742,60.1582Z" transform="translate(0 0.2831)" style="fill:#202020"/><line x1="930.772" y1="56.6632" x2="927.3806" y2="56.147" style="fill:none"/><path d="M932.0445,51.417c-4.6546-2.0591,1.0028,2.212,1.7872,3.12-1.1163-6.6124-11.376-6.41-12.7305-.1322C919.5729,69.1317,946.3178,59.8893,932.0445,51.417Z" transform="translate(0 0.2831)" style="fill:#202020"/><path d="M950.0631,65.4458c7.9249,1.4548,11.0009-11.8794,2.3687-12.5238C944.6641,51.74,941.3232,64.8489,950.0631,65.4458Z" transform="translate(0 0.2831)" style="fill:#202020"/><path d="M970.9107,66.542c10.0863-.5463,9.3967-16.98-.9313-15.3959C961.0274,52.3374,959.77,68.3,970.9107,66.542Z" transform="translate(0 0.2831)" style="fill:#202020"/><path d="M991.41,46.7461c-1.0278.5708-2.0332,1.1562-3.0219,1.7339" transform="translate(0 0.2831)" style="fill:none"/><path d="M990.7945,40.55c-8.417.2769-12.837,12.2553-3.11,14.3837C997.0332,56.4192,1002.7186,39.2732,990.7945,40.55Z" transform="translate(0 0.2831)" style="fill:#202020"/><path d="M1007.9747,51.645c7.0642.5655,10.1983-11.8383,1.8477-12.1266C1002.0877,38.198,1000.3361,50.8583,1007.9747,51.645Z" transform="translate(0 0.2831)" style="fill:#202020"/><path d="M1032.3805,49.7163c-1.1451-.13-2.2754-.3682-3.41-.5718" transform="translate(0 0.2831)" style="fill:none"/><path d="M1033.6329,44.7422c2.7484,4.3318-3.19-7.9023-10.917,2.6323C1022.3151,63.6834,1047.77,53.1787,1033.6329,44.7422Z" transform="translate(0 0.2831)" style="fill:#202020"/><path d="M1051.9708,58.1152c7.58,1.0882,11.0443-11.828,2.0247-12.5817C1046.5882,44.5991,1042.759,57.402,1051.9708,58.1152Z" transform="translate(0 0.2831)" style="fill:#202020"/><path d="M1071.2183,60.147c9.2032.8282,12.6546-14.9266,1.7127-15.3025C1063.84,44.1433,1060.1481,59.7621,1071.2183,60.147Z" transform="translate(0 0.2831)" style="fill:#202020"/><line x1="1096.1699" y1="49.5248" x2="1092.728" y2="49.521" style="fill:none"/><path d="M1098.3834,43.4927c-7.5265-3.7974-17.0307,4.4772-9.441,10.9991C1096.3881,60.4413,1109.1734,48.529,1098.3834,43.4927Z" transform="translate(0 0.2831)" style="fill:#202020"/><path d="M1112.6007,58.835c7.9091.2172,9.7514-11.9483,1.48-12.1758C1106.7633,45.9322,1103.9251,58.4475,1112.6007,58.835Z" transform="translate(0 0.2831)" style="fill:#202020"/><line x1="1137.2672" y1="54.3933" x2="1133.8573" y2="54.1067" style="fill:none"/><path d="M1138.2862,49.1c1.1181,3.3-2.8911-8.07-10.7886,3.6175C1129.3646,68.4617,1152.0516,57.2791,1138.2862,49.1Z" transform="translate(0 0.2831)" style="fill:#202020"/><path d="M1155.6,63.3545c7.1359,1.87,12.8252-9.9869,3.8729-12.1287C1151.87,48.8526,1147.2537,61.5813,1155.6,63.3545Z" transform="translate(0 0.2831)" style="fill:#202020"/><path d="M1173.7647,69.1108c9.6452,2.9951,14.6021-12.7036,4.4057-14.7569C1169.2794,52.2236,1162.9688,66.9779,1173.7647,69.1108Z" transform="translate(0 0.2831)" style="fill:#202020"/><line x1="1199.3147" y1="56.7465" x2="1196.0135" y2="57.701" style="fill:none"/><path d="M1199.9967,50.3062c-8.0519-1.6423-14.83,8.7951-6.3335,13.1685C1202.5081,67.3645,1211.9346,51.8633,1199.9967,50.3062Z" transform="translate(0 0.2831)" style="fill:#202020"/><path d="M1216.4625,63.2817c7.0531.1234,9.7926-12.11.9325-12.23C1209.7259,50.4143,1208.3971,63.4948,1216.4625,63.2817Z" transform="translate(0 0.2831)" style="fill:#202020"/><line x1="1240.8475" y1="58.4112" x2="1237.4134" y2="58.2337" style="fill:none"/><path d="M1241.6251,53.064c-4.806-1.583,1.23,2.1024,2.0851,2.92-1.8014-6.4221-11.7077-5.2732-12.6945,1.0271C1230.61,72.0343,1256.7816,60.0794,1241.6251,53.064Z" transform="translate(0 0.2831)" style="fill:#202020"/><path d="M1260.5279,65.4917c8.4243.4351,10.2881-12.166,1.8565-12.6021C1254.0074,52.457,1252.0538,65.0537,1260.5279,65.4917Z" transform="translate(0 0.2831)" style="fill:#202020"/><path d="M1292.2764,63.7759c9.7046-.3457,10.606-15.7188.8858-15.3672C1283.5,48.7451,1282.5206,64.1138,1292.2764,63.7759Z" transform="translate(0 0.2831)" style="fill:#202020"/><line x1="1315.5041" y1="52.1603" x2="1312.2347" y2="52.2983" style="fill:none"/><path d="M1317.3355,46.0371c-7.5872-3.4865-15.8426,5.4093-8.4945,11.373C1316.5,63.0838,1327.7111,50.4231,1317.3355,46.0371Z" transform="translate(0 0.2831)" style="fill:#202020"/><path d="M1331.7867,60.5361c7.769-.4282,8.1846-12.6967.4736-12.2558C1324.5992,48.6919,1323.9776,60.9414,1331.7867,60.5361Z" transform="translate(0 0.2831)" style="fill:#202020"/><line x1="1354.939" y1="53.2118" x2="1351.6679" y2="53.4533" style="fill:none"/><path d="M1355.0216,47.811c-4.7587-.981,1.4784,1.9451,2.3439,2.63-2.5368-6.1186-11.6833-3.8086-11.8664,2.5513C1346.7783,67.8874,1370.3583,53.0564,1355.0216,47.811Z" transform="translate(0 0.2831)" style="fill:#202020"/><path d="M1374.6007,57.5474c8.0923-.8467,7.82-13.5923-.1128-12.7329C1366.606,45.5952,1366.4708,58.353,1374.6007,57.5474Z" transform="translate(0 0.2831)" style="fill:#202020"/><path d="M1392.8873,56.7788c9.2084-.9675,9.5223-16.454-.5552-15.384C1382.85,42.5884,1383.0606,57.9849,1392.8873,56.7788Z" transform="translate(0 0.2831)" style="fill:#202020"/><path d="M1415.1788,43.4058c-1.1123.039-2.2178.1191-3.3252.184" transform="translate(0 0.2831)" style="fill:none"/><path d="M1417.1607,37.5811c-7.9394-3.5608-16.39,5.6521-8.4808,11.5327C1416.2764,54.3908,1427.543,41.8747,1417.1607,37.5811Z" transform="translate(0 0.2831)" style="fill:#202020"/><path d="M1430.2125,53.3359c6.9592,1.0062,10.7633-10.7436,2.6113-11.98C1425.6941,39.9355,1422.3778,52.1978,1430.2125,53.3359Z" transform="translate(0 0.2831)" style="fill:#202020"/><line x1="1454.0451" y1="51.4895" x2="1450.8044" y2="50.9237" style="fill:none"/><path d="M1455.3477,46.2485c1.8218,4.2023-3.128-8.0033-10.4793,2.6748C1444.1082,64.7864,1468.67,55.0477,1455.3477,46.2485Z" transform="translate(0 0.2831)" style="fill:#202020"/><path d="M1472.5792,59.8271c8.3633.5542,9.9326-12.1123,2.1308-12.5419C1467.0206,46.6113,1464.2091,59.0952,1472.5792,59.8271Z" transform="translate(0 0.2831)" style="fill:#202020"/><path d="M1491.1754,61.8486c8.9987.65,11.67-15.1889,1.3791-15.3278C1483.1575,46.2681,1481.2825,62.0613,1491.1754,61.8486Z" transform="translate(0 0.2831)" style="fill:#202020"/><line x1="1514.576" y1="50.0259" x2="1511.3387" y2="50.2913" style="fill:none"/><path d="M1516.0514,43.7983c-7.6735-3.0306-15.2877,6.0814-7.9233,11.7367C1516.105,60.9386,1526.6547,47.6871,1516.0514,43.7983Z" transform="translate(0 0.2831)" style="fill:#202020"/><path d="M1531.5738,57.1138c7.1232-.5982,7.4072-13.3382-.7526-12.2448C1523.8316,45.6588,1523.2525,58.1974,1531.5738,57.1138Z" transform="translate(0 0.2831)" style="fill:#202020"/><line x1="1553.7966" y1="46.842" x2="1550.5918" y2="47.5772" style="fill:none"/><path d="M1553.0787,41.4937c3.2426,3.1772-5.8443-6.1867-8.6365,6.4993C1550.5741,62.6648,1568.5764,44.8868,1553.0787,41.4937Z" transform="translate(0 0.2831)" style="fill:#202020"/><path d="M1573.81,47.9316c7.14-1.6126,6.4729-14.4345-1.8931-12.5919C1564.2714,37.0078,1565.808,49.7276,1573.81,47.9316Z" transform="translate(0 0.2831)" style="fill:#202020"/><path d="M1589.9786,46.7012c8.6484.0336,11.311-15.6113,1.2486-15.3406C1581.8729,30.5326,1580.4035,46.5763,1589.9786,46.7012Z" transform="translate(0 0.2831)" style="fill:#202020"/><path d="M1613.4307,37.6235c-1.0556-.0532-2.1142-.1225-3.1782-.2148" transform="translate(0 0.2831)" style="fill:none"/><path d="M1615.5108,31.9258c-6.6756-4.0369-15.5528,3.8121-9.38,10.3412C1613.2594,49.1426,1625.5293,37.3458,1615.5108,31.9258Z" transform="translate(0 0.2831)" style="fill:#202020"/><path d="M1629.9093,46.1362c7.2992-.65,7.843-12.986-.23-12.2628C1622.3825,34.5341,1621.7408,46.8622,1629.9093,46.1362Z" transform="translate(0 0.2831)" style="fill:#202020"/><line x1="1652.575" y1="38.6628" x2="1649.3111" y2="38.7751" style="fill:none"/><path d="M1652.899,33.27c-5.4662-1.1028,1.7961,1.9481,2.2229,2.7492-15.8954-16.3419-13.7649,22.3107.2838,4.1285C1645.6331,49.8459,1666.668,36.7012,1652.899,33.27Z" transform="translate(0 0.2831)" style="fill:#202020"/><path d="M1671.6915,44.4c8-.0874,9.1118-12.78,1.039-12.6934C1664.713,31.7974,1663.6334,44.4922,1671.6915,44.4Z" transform="translate(0 0.2831)" style="fill:#202020"/><path d="M1689.6876,45.56c9.61-.0386,11.1455-15.3589,1.3452-15.3345C1681.3009,30.2861,1679.9932,45.63,1689.6876,45.56Z" transform="translate(0 0.2831)" style="fill:#202020"/><line x1="1713.3188" y1="34.9217" x2="1710.0352" y2="34.8811" style="fill:none"/><path d="M1715.5123,28.9194c-7.4416-3.94-16.246,4.531-9.1328,10.8965C1713.69,45.8438,1725.6164,33.8768,1715.5123,28.9194Z" transform="translate(0 0.2831)" style="fill:#202020"/><path d="M1728.8468,44.4683c7.0343.5737,9.8391-11.67,1.5687-12.1673C1722.6182,32.0444,1721.1807,44.2158,1728.8468,44.4683Z" transform="translate(0 0.2831)" style="fill:#202020"/><line x1="1752.4967" y1="39.8297" x2="1749.2318" y2="39.6323" style="fill:none"/><path d="M1753.314,34.4927c3.2137,3.7933-2.61-7.8753-10.1712,3.8787C1742.5283,53.1823,1767.6024,41.8421,1753.314,34.4927Z" transform="translate(0 0.2831)" style="fill:#202020"/><path d="M1770.8868,47.3843c7.8623.768,10.4614-11.69,2.3628-12.522C1765.1778,34.1514,1762.9561,46.686,1770.8868,47.3843Z" transform="translate(0 0.2831)" style="fill:#202020"/><path d="M1788.4791,50.582c9.0825,1.2754,13.2986-13.5856,3.2281-15.0558C1781.9552,34.3979,1778.943,49.478,1788.4791,50.582Z" transform="translate(0 0.2831)" style="fill:#202020"/><line x1="1813.2789" y1="43.0973" x2="1810.0272" y2="42.6253" style="fill:none"/><path d="M1816.2281,37.4561c-6.8417-4.9239-16.7352,2.2935-10.5221,9.5694C1812.1351,53.9581,1825.5646,43.7448,1816.2281,37.4561Z" transform="translate(0 0.2831)" style="fill:#202020"/><path d="M1827.3238,54.667c6.89,1.5268,11.339-10.2192,3.2138-11.8392C1822.8492,41.5083,1819.7633,53.3691,1827.3238,54.667Z" transform="translate(0 0.2831)" style="fill:#202020"/><line x1="1851.424" y1="53.3004" x2="1848.2168" y2="52.6589" style="fill:none"/><path d="M1852.9234,48.12c1.58,4.3034-2.8731-8.2307-10.6059,2.4577C1841.8956,66.3,1865.3589,57.75,1852.9234,48.12Z" transform="translate(0 0.2831)" style="fill:#202020"/><path d="M1868.5733,63.2891c7.6836,1.832,11.959-10.1553,4.0489-12.0821C1864.7227,49.4,1860.8126,61.5142,1868.5733,63.2891Z" transform="translate(0 0.2831)" style="fill:#202020"/><path d="M17.5894,46.14c8.7256-2.2137,8.2232-18.211-3.06-15.11C4.826,33.008,7.4467,49.4333,17.5894,46.14Z" transform="translate(0 0.2831)" style="fill:#202020"/><path d="M39.88,30.2715c-1.1988.1328-2.395.2871-3.5889.4726" transform="translate(0 0.2831)" style="fill:none"/><path d="M41.5577,24.2808c-3.84-.4161-7.7-.73-10.5483,2.3447C21.2647,45.4381,60.6817,34.5555,41.5577,24.2808Z" transform="translate(0 0.2831)" style="fill:#202020"/><path d="M57.6261,38.3569c7.3849.2719,9.9778-12.3944.781-12.2458C50.5525,25.62,49.0306,38.9637,57.6261,38.3569Z" transform="translate(0 0.2831)" style="fill:#202020"/><line x1="82.9563" y1="32.4376" x2="79.3877" y2="32.3727" style="fill:none"/><path d="M83.5763,27.0674c-5.0541-1.429,1.3192,2.0492,2.2771,2.8576-2.0779-6.3835-12.4959-4.8854-13.1443,1.4939C73.2466,46.4912,99.4119,33.4029,83.5763,27.0674Z" transform="translate(0 0.2831)" style="fill:#202020"/><path d="M103.64,38.958c8.8662.1314,10.2207-12.5508,1.5117-12.6577C96.4781,26.1328,94.774,38.772,103.64,38.958Z" transform="translate(0 0.2831)" style="fill:#202020"/><path d="M123.6441,40.3c9.4819.6152,12.6126-15.4669,1.1755-15.3606C115.5289,24.4815,112.0013,40.3347,123.6441,40.3Z" transform="translate(0 0.2831)" style="fill:#202020"/><line x1="148.8566" y1="27.7107" x2="145.3558" y2="28.1558" style="fill:none"/><path d="M150.2325,21.4209c-3.5771-.3267-6.9136-.7622-9.7056,2.0464C129.6583,42.5433,169.9813,31.8517,150.2325,21.4209Z" transform="translate(0 0.2831)" style="fill:#202020"/><path d="M167.2486,34.061c7.2672-.5929,8.6859-13.3438-.5134-12.2648C158.8657,22.1364,158.7506,35.5865,167.2486,34.061Z" transform="translate(0 0.2831)" style="fill:#202020"/><path d="M191.5889,27.58q-1.7534-.2373-3.5112-.4028" transform="translate(0 0.2831)" style="fill:none"/><path d="M192.7862,22.5972c-4.8112-1.4518.7111,1.5475,1.947,3.12-1.166-6.719-12.5852-6.123-13.2341.4869C184.1214,41.9375,206.4118,30.6139,192.7862,22.5972Z" transform="translate(0 0.2831)" style="fill:#202020"/><path d="M210.7935,37.5254c7.5593,2.1809,12.9032-10.3266,3.6312-12.22C205.9893,23.6689,202.0206,35.7886,210.7935,37.5254Z" transform="translate(0 0.2831)" style="fill:#202020"/><path d="M230.4708,42.0122c9.2551,2.0805,14.8463-13.3594,3.5212-14.9993C224.8689,25.1178,218.9694,40.27,230.4708,42.0122Z" transform="translate(0 0.2831)" style="fill:#202020"/><line x1="257.462" y1="34.1067" x2="253.9112" y2="33.7914" style="fill:none"/><path d="M260.2169,28.2871c-3.522-1.1455-6.895-2.2739-10.2486-.0552C235.6721,44.5079,277,42.6373,260.2169,28.2871Z" transform="translate(0 0.2831)" style="fill:#202020"/><path d="M273.9649,44.59c8.5054.5718,10.4673-11.5522,2.085-12.0957C267.7247,31.9,265.4317,43.9629,273.9649,44.59Z" transform="translate(0 0.2831)" style="fill:#202020"/><line x1="300.0408" y1="40.1179" x2="296.4617" y2="39.9969" style="fill:none"/><path d="M300.7105,34.7549c-4.9962-1.48,1.3172,2.0675,2.2425,2.8757-2.0677-6.3523-12.1809-5.0876-13.1634,1.1887C289.8834,54.1309,316.6476,41.3146,300.7105,34.7549Z" transform="translate(0 0.2831)" style="fill:#202020"/><path d="M320.9923,46.35c7.8271.5843,10.5448-12.7185,1.072-12.7019C314.3593,33.1867,311.3863,46.3185,320.9923,46.35Z" transform="translate(0 0.2831)" style="fill:#202020"/><path d="M341.1514,46.8213c9.9321.2523,11.2213-16.51.4266-15.4065C332.2784,31.42,329.5128,47.4154,341.1514,46.8213Z" transform="translate(0 0.2831)" style="fill:#202020"/><line x1="365.8613" y1="33.353" x2="362.3352" y2="33.831" style="fill:none"/><path d="M367.2945,27.0605c-3.6675-.35-7.1758-.6694-9.9433,2.1983C346.95,48.3342,386.8951,37.3173,367.2945,27.0605Z" transform="translate(0 0.2831)" style="fill:#202020"/><path d="M384.3722,39.8052c8.3427-1.355,7.624-13.61-.7164-12.2554C375.3883,28.8687,375.943,41.1348,384.3722,39.8052Z" transform="translate(0 0.2831)" style="fill:#202020"/><line x1="408.7104" y1="29.9942" x2="405.1828" y2="30.535" style="fill:none"/><path d="M408.4542,24.5933c-5.2256-.547,1.6477,1.79,2.7314,2.4227-1.57-2.9545-4.8574-3.6366-7.6919-2.7709-13.8792,5.333,4.7348,20.3039,8.4968,6.8287C402.3228,42.1208,423.8989,26.2346,408.4542,24.5933Z" transform="translate(0 0.2831)" style="fill:#202020"/><path d="M429.9913,33.2163c7.6779-.283,9.3811-13.6235-.1272-12.7414C422.0407,20.6344,420.6188,34.1084,429.9913,33.2163Z" transform="translate(0 0.2831)" style="fill:#202020"/><path d="M449.17,32.95c9.2147.2032,12.4647-15.5767.8645-15.3845C440.5452,17.0937,437.8862,33.3246,449.17,32.95Z" transform="translate(0 0.2831)" style="fill:#202020"/><line x1="474.6833" y1="22.5051" x2="471.0843" y2="22.2913" style="fill:none"/><path d="M477.4141,16.6587c-4.8674-2.2392-13.3331-1.511-13.1929,5.3495C465.4894,35.93,491.1634,25.3017,477.4141,16.6587Z" transform="translate(0 0.2831)" style="fill:#202020"/><path d="M490.9039,33.2212c8.2832.9512,11.0683-11.0108,2.6025-11.9981C486.1467,19.7344,481.88,32.0451,490.9039,33.2212Z" transform="translate(0 0.2831)" style="fill:#202020"/><line x1="517.0723" y1="30.3436" x2="513.5104" y2="29.971" style="fill:none"/><path d="M518.0933,25.0386c-.7519-.1431-1.4961-.27-2.2421-.4419,11.1616,7.7275-6.14-8.7464-8.933,3.7456C506.01,43.6638,533.5626,32.6268,518.0933,25.0386Z" transform="translate(0 0.2831)" style="fill:#202020"/><path d="M537.76,37.7915c7.4078.9532,10.7706-11.1783,2.7365-12.596C532.37,23.3,527.3573,37.1389,537.76,37.7915Z" transform="translate(0 0.2831)" style="fill:#202020"/><path d="M558.088,38.69c10.833-.6841,11.0771-16.104.6665-15.3847C549.4889,23.1452,546.4227,39.151,558.088,38.69Z" transform="translate(0 0.2831)" style="fill:#202020"/><line x1="583.1428" y1="26.0474" x2="579.5755" y2="26.337" style="fill:none"/><path d="M584.9722,19.8462c-7.852-3.1307-17.3974,5.7157-8.8886,11.7677C584.0466,36.8757,596.6907,24.1,584.9722,19.8462Z" transform="translate(0 0.2831)" style="fill:#202020"/><path d="M600.8692,34.0244c8.1-.2851,9.3755-12.5347.6939-12.25C592.963,22.2134,592.6241,34.4917,600.8692,34.0244Z" transform="translate(0 0.2831)" style="fill:#202020"/><line x1="626.0557" y1="28.5155" x2="622.5194" y2="28.2532" style="fill:none"/><path d="M627.0245,23.1929c-4.6325-1.1256.65,1.4661,2.0867,3.0274-1.5317-6.6043-12.4963-5.6014-13.2214.874C618.7425,42.9692,641.1845,30.658,627.0245,23.1929Z" transform="translate(0 0.2831)" style="fill:#202020"/><path d="M644.6807,37.8232c6.9864,1.63,13.8354-9.7388,4.65-11.897C640.9477,23.4584,636.353,35.34,644.6807,37.8232Z" transform="translate(0 0.2831)" style="fill:#202020"/><path d="M671,41.9927c9.2519-.13,10.4585-15.4756,1.1465-15.3448C662.8941,26.7783,661.6881,42.1235,671,41.9927Z" transform="translate(0 0.2831)" style="fill:#202020"/><line x1="693.4395" y1="30.9639" x2="690.3097" y2="31.0079" style="fill:none"/><path d="M695.358,24.9014c-7.4548-3.75-15.2047,5.1763-8.4252,11.1215C694.3656,41.914,705.0385,29.3859,695.358,24.9014Z" transform="translate(0 0.2831)" style="fill:#202020"/><path d="M708.6822,39.9058c7.374-.1036,8.335-12.33.9155-12.2261C702.2237,27.7837,701.2623,40.01,708.6822,39.9058Z" transform="translate(0 0.2831)" style="fill:#202020"/><line x1="731.053" y1="33.7711" x2="727.9237" y2="33.8149" style="fill:none"/><path d="M731.44,28.3848c-4.5271-1.2731,1.33,2.0605,2.0855,2.7862-2.0547-6.3058-11.002-4.5143-11.4732,1.8373C722.3637,47.79,745.6926,34.6974,731.44,28.3848Z" transform="translate(0 0.2831)" style="fill:#202020"/><path d="M747.9068,40.8c7.1163,1.6656,11.0517-10.8627,3.32-12.29C744.0907,26.7023,740.4392,39.3,747.9068,40.8Z" transform="translate(0 0.2831)" style="fill:#202020"/><path d="M767.2677,43.561c9.36-.2482,8.9308-16.38-.55-15.388C758.331,29.4073,757.0094,45.0558,767.2677,43.561Z" transform="translate(0 0.2831)" style="fill:#202020"/><line x1="787.4518" y1="27.2257" x2="784.4381" y2="28.1697" style="fill:none"/><path d="M787.8014,20.8384c-8.43-1.4775-13.2992,9.26-5.0521,13.1028C791.4246,37.4057,798.4161,22.3219,787.8014,20.8384Z" transform="translate(0 0.2831)" style="fill:#202020"/><path d="M803.3111,33.2456c6.51-.3757,8.1619-12.7214.451-12.2442C796.5537,20.7221,796.0887,33.2757,803.3111,33.2456Z" transform="translate(0 0.2831)" style="fill:#202020"/><path d="M824.752,30.0464c-1.0058-.2661-2.0127-.5064-3.02-.7466" transform="translate(0 0.2831)" style="fill:none"/><path d="M826.4605,25.2222c-3.9393-1.8754.4487,1.69,1.2817,3.2343-.0058-6.63-10.1827-7.1457-11.5775-.9532C815.2859,42.7156,837.7226,35.3789,826.4605,25.2222Z" transform="translate(0 0.2831)" style="fill:#202020"/><path d="M841.3209,40.6558c7.3213,1.9462,11.1349-10.7258,3.4119-12.2758C837.8632,27.0159,833.105,38.8774,841.3209,40.6558Z" transform="translate(0 0.2831)" style="fill:#202020"/><path d="M860.5421,43.0918c9.581-.5388,9.3107-15.99.0654-15.3982C852.0305,28.2522,850.5886,44.1368,860.5421,43.0918Z" transform="translate(0 0.2831)" style="fill:#202020"/><line x1="881.8396" y1="29.0129" x2="878.7241" y2="29.5331" style="fill:none"/><path d="M882.9976,22.7271c-8.1242-2.6192-14.4787,7.4006-6.7591,12.2933C884.3725,39.6221,893.28,25.692,882.9976,22.7271Z" transform="translate(0 0.2831)" style="fill:#202020"/><path d="M897.1676,36.8184c6.463.1336,9.2658-11.8173,1.2578-12.2047C891.3347,23.9661,889.8365,36.485,897.1676,36.8184Z" transform="translate(0 0.2831)" style="fill:#202020"/><line x1="919.2674" y1="33.7102" x2="916.2003" y2="33.1352" style="fill:none"/><path d="M920.6754,28.5073c-4.1854-2.1651.8731,2.2762,1.4783,3.1459-.4149-6.5587-10.4152-6.5184-11.6086-.3809C908.0817,45.4178,933.3773,37.7188,920.6754,28.5073Z" transform="translate(0 0.2831)" style="fill:#202020"/><path d="M936.4288,42.9175c7.4023,1.4317,10.5427-11.2862,2.7419-12.4442C931.9372,29.349,928.5214,41.9535,936.4288,42.9175Z" transform="translate(0 0.2831)" style="fill:#202020"/><path d="M955.4566,44.7881c9.3249-.0993,9.1611-16.2392-.3036-15.36C946.6443,30.2,945.5114,46.1388,955.4566,44.7881Z" transform="translate(0 0.2831)" style="fill:#202020"/><line x1="975.617" y1="28.5346" x2="972.703" y2="29.5963" style="fill:none"/><path d="M975.4605,22.167c-8.125-1.08-12.2751,9.8137-4.3246,13.2371C980.1754,38.6693,986.1738,23.1649,975.4605,22.167Z" transform="translate(0 0.2831)" style="fill:#202020"/><path d="M992.8336,32.01c6.5067-1.864,4.5469-14.3977-2.7259-11.9489C983.0982,22.0967,985.7255,34.1312,992.8336,32.01Z" transform="translate(0 0.2831)" style="fill:#202020"/><path d="M1012.55,22.7256a29.1375,29.1375,0,0,0-3.05-.0571" transform="translate(0 0.2831)" style="fill:none"/><path d="M1013.3409,17.6685c-2.4815,3.9107,6.5422-.3375-4.6155-1.1758C989.5932,31.3135,1030.68,32.76,1013.3409,17.6685Z" transform="translate(0 0.2831)" style="fill:#202020"/><path d="M1029.0714,31.9771c7.1894,1.991,11.3079-10.59,3.6028-12.2108C1025.3624,18.2524,1021.3678,30.3506,1029.0714,31.9771Z" transform="translate(0 0.2831)" style="fill:#202020"/><path d="M1047.4107,35.4194c9.31.477,11.1166-14.879,1.7144-15.2942C1040.4871,19.6186,1037.572,35.3534,1047.4107,35.4194Z" transform="translate(0 0.2831)" style="fill:#202020"/><line x1="1070.1851" y1="24.2744" x2="1067.0391" y2="24.364" style="fill:none"/><path d="M1072.1007,18.1973c-7.62-3.6817-15.26,5.3673-8.332,11.2489C1071.2461,35.1586,1081.8466,22.5561,1072.1007,18.1973Z" transform="translate(0 0.2831)" style="fill:#202020"/><path d="M1085.0426,33.5747c7.0776.4024,9.2216-11.709,1.6206-12.1387C1079.6887,20.635,1077.5036,33.22,1085.0426,33.5747Z" transform="translate(0 0.2831)" style="fill:#202020"/><line x1="1107.5955" y1="29.604" x2="1104.495" y2="29.2384" style="fill:none"/><path d="M1108.6324,24.31c-4.3442-1.8543,1.0407,2.2051,1.71,3.03-12.73-18.3247-16.2081,20.04-.3247,4.1243C1099.442,39.7429,1121.1591,29.4792,1108.6324,24.31Z" transform="translate(0 0.2831)" style="fill:#202020"/><path d="M1124.7115,37.9746c7.5156,1.1157,10.61-11.2451,2.9487-12.3823C1120.4123,24.3259,1116.8731,36.6271,1124.7115,37.9746Z" transform="translate(0 0.2831)" style="fill:#202020"/><path d="M1141.51,41.8394c9.2325,1.3715,12.7891-13.5992,3.6373-14.9532C1136.0084,25.5024,1132.3009,40.437,1141.51,41.8394Z" transform="translate(0 0.2831)" style="fill:#202020"/><path d="M1165.4718,34.0933c-1.0308-.1236-2.0625-.231-3.0923-.38" transform="translate(0 0.2831)" style="fill:none"/><path d="M1168.1222,28.6113c-6.8-4.6627-15.6319,3.0316-9.8512,9.84C1164.8222,45.4129,1177.1058,34.3879,1168.1222,28.6113Z" transform="translate(0 0.2831)" style="fill:#202020"/><path d="M1179.6485,45.0474c6.8584.9977,9.8167-11.3217,2.0536-12.0763C1174.5367,32.3291,1172.0479,44.3677,1179.6485,45.0474Z" transform="translate(0 0.2831)" style="fill:#202020"/><path d="M1202.6837,39.82c-1.0493.0191-2.0977-.0141-3.147-.019" transform="translate(0 0.2831)" style="fill:none"/><path d="M1203.0509,34.7051c3.2671,3.2421-4.6463-7.3947-9.3953,4.4252C1195.7939,54.7474,1217.1744,41.6144,1203.0509,34.7051Z" transform="translate(0 0.2831)" style="fill:#202020"/><path d="M1221.7647,44.8525c7.2465-.4041,7.5153-13.7565-.49-12.6955C1214.0543,32.88,1213.6412,45.665,1221.7647,44.8525Z" transform="translate(0 0.2831)" style="fill:#202020"/><path d="M1247.2833,46.9028c9.0762-1.37,8.352-16.7617-.9717-15.354C1237.0416,32.9858,1238.1466,48.35,1247.2833,46.9028Z" transform="translate(0 0.2831)" style="fill:#202020"/><line x1="1268.1176" y1="33.1093" x2="1264.9956" y2="33.5234" style="fill:none"/><path d="M1269.3731,26.8569c-7.8858-2.8527-14.6376,6.9367-7.0994,12.0478C1270.3382,43.8574,1279.553,30.1739,1269.3731,26.8569Z" transform="translate(0 0.2831)" style="fill:#202020"/><path d="M1284.3,40.3271c7.2847-.8334,7.125-13.1069-.3252-12.2543C1276.564,28.9346,1276.9664,41.2041,1284.3,40.3271Z" transform="translate(0 0.2831)" style="fill:#202020"/><line x1="1305.9926" y1="32.1835" x2="1302.8678" y2="32.4843" style="fill:none"/><path d="M1305.9683,26.7817c-4.63-.8937,1.48,1.9352,2.3068,2.6-2.5343-6.1054-11.4337-3.5908-11.3209,2.8047C1298.5579,46.8531,1320.7215,31.8756,1305.9683,26.7817Z" transform="translate(0 0.2831)" style="fill:#202020"/><path d="M1324.6851,36.6606c7.5884-.5732,7.9331-13.2939.1651-12.7324C1317.1256,24.5317,1317.0421,37.2578,1324.6851,36.6606Z" transform="translate(0 0.2831)" style="fill:#202020"/><path d="M1341.898,36.8115c8.83-.3205,10.1881-15.73.4571-15.3825C1333.41,21.7259,1332.2636,37.1307,1341.898,36.8115Z" transform="translate(0 0.2831)" style="fill:#202020"/><line x1="1363.9483" y1="24.9988" x2="1360.8017" y2="25.1312" style="fill:none"/><path d="M1365.7525,18.8975c-7.5849-3.5712-15.2177,5.5354-8.1869,11.3412C1365.1318,35.9,1375.5829,23.165,1365.7525,18.8975Z" transform="translate(0 0.2831)" style="fill:#202020"/><path d="M1379.3653,33.6958c7.3257-.1694,8.3135-12.3931.8135-12.2349C1372.72,21.64,1371.9815,33.8735,1379.3653,33.6958Z" transform="translate(0 0.2831)" style="fill:#202020"/><line x1="1401.6728" y1="27.9706" x2="1398.5583" y2="27.8198" style="fill:none"/><path d="M1402.4444,22.6294l-2.0639-.3315c10.3993,6.7785-6.6622-8.1448-7.6684,4.5132C1394.5438,41.9629,1415.4653,30.3634,1402.4444,22.6294Z" transform="translate(0 0.2831)" style="fill:#202020"/><path d="M1419.2022,36.0352c7.5473,1.3346,10.1145-11.6859,2.2615-12.5307C1414.4883,22.7488,1410.8391,35.0273,1419.2022,36.0352Z" transform="translate(0 0.2831)" style="fill:#202020"/><path d="M1438.44,36.5933c9.0787-1.1425,8.5568-16.6091-.9428-15.3616C1428.8568,22.2,1428.6857,38.2449,1438.44,36.5933Z" transform="translate(0 0.2831)" style="fill:#202020"/><line x1="1459.5357" y1="23.0417" x2="1456.3305" y2="23.2265" style="fill:none"/><path d="M1461.4376,16.9419c-7.9185-3.628-15.8405,5.9-8.0554,11.5478C1460.9242,33.701,1471.2258,21.0685,1461.4376,16.9419Z" transform="translate(0 0.2831)" style="fill:#202020"/><path d="M1474.3516,32.4155c6.8967.5924,9.6465-11.4185,1.86-12.1168C1469.0122,19.6285,1466.8542,31.7513,1474.3516,32.4155Z" transform="translate(0 0.2831)" style="fill:#202020"/><line x1="1497.1712" y1="28.5104" x2="1494.0323" y2="28.243" style="fill:none"/><path d="M1498.0347,23.1841c-4.3592-1.6982,1.137,2.1673,1.8124,2.9538-1.14-6.3883-10.8289-5.4007-11.6262.6832C1486.8505,41.4106,1511.9276,31.0648,1498.0347,23.1841Z" transform="translate(0 0.2831)" style="fill:#202020"/><path d="M1515.4254,35.4517c7.542.3039,9.2179-12.3814,1.292-12.6623C1509.4767,22.5311,1507.24,35.157,1515.4254,35.4517Z" transform="translate(0 0.2831)" style="fill:#202020"/><path d="M1533.2711,36.4507c9.1537-.2342,10.1043-15.6624.5532-15.3767C1525.11,21.3434,1523.3428,36.7305,1533.2711,36.4507Z" transform="translate(0 0.2831)" style="fill:#202020"/><path d="M1555.107,23.3691c-1.0278.1514-2.06.274-3.09.4034" transform="translate(0 0.2831)" style="fill:none"/><path d="M1556.2545,17.3994c-7.7056-2.7965-14.2773,6.8694-7.0668,11.9949C1557.3233,34.5125,1566.4839,20.7258,1556.2545,17.3994Z" transform="translate(0 0.2831)" style="fill:#202020"/><path d="M1571.7506,30.1636c7.47-1.5015,5.8818-13.6719-1.2754-12.1885C1563.5824,19.153,1563.9943,31.5023,1571.7506,30.1636Z" transform="translate(0 0.2831)" style="fill:#202020"/><line x1="1592.6478" y1="19.5894" x2="1589.5865" y2="20.3082" style="fill:none"/><path d="M1591.922,14.24c-4.6948-.2663,1.7445,1.72,2.6408,2.2635-18.0677-13.3994-8.1529,24.8844,1.117,3.9846C1588.417,31.8877,1605.5814,14.893,1591.922,14.24Z" transform="translate(0 0.2831)" style="fill:#202020"/><path d="M1611.8038,21.3984c7.1215-1.3707,6.3663-14.1543-1.5738-12.631C1602.6026,10.44,1604.3834,23.0571,1611.8038,21.3984Z" transform="translate(0 0.2831)" style="fill:#202020"/><path d="M1628.5792,19.54c8.5934-.9572,8.517-16.9245-1.0038-15.3557C1618.5252,5.3171,1619.2232,20.765,1628.5792,19.54Z" transform="translate(0 0.2831)" style="fill:#202020"/><line x1="1649.7276" y1="6.798" x2="1646.5345" y2="6.876" style="fill:none"/><path d="M1651.7349.7148c-10.4163-5.1321-16.3765,11.1305-4.6994,12.5288C1654.3339,14.1739,1659.4494,3.89,1651.7349.7148Z" transform="translate(0 0.2831)" style="fill:#202020"/><path d="M1664.4732,16.3428c7.2613.498,9.3921-11.5855,1.88-12.1138C1659.2016,3.5648,1656.9142,15.6632,1664.4732,16.3428Z" transform="translate(0 0.2831)" style="fill:#202020"/><line x1="1687.4157" y1="11.8897" x2="1684.2547" y2="11.7868" style="fill:none"/><path d="M1687.9732,6.5171c2.54,3.8444-4.1389-7.33-9.59,4.0682C1679.1878,26.2283,1702.119,13.6626,1687.9732,6.5171Z" transform="translate(0 0.2831)" style="fill:#202020"/><path d="M1706.3126,17.21c7.685-.6308,7.8047-13.3681.1015-12.7309C1699.1229,4.91,1698.1918,17.6766,1706.3126,17.21Z" transform="translate(0 0.2831)" style="fill:#202020"/><path d="M1723.2364,17.3711c8.5184.0625,10.6561-15.731.97-15.3547C1714.9628,1.9872,1713.92,17.3958,1723.2364,17.3711Z" transform="translate(0 0.2831)" style="fill:#202020"/><line x1="1745.9035" y1="8.2913" x2="1742.759" y2="7.8222" style="fill:none"/><path d="M1748.8394,2.6558c-6.902-5.0424-16.3778,2.6123-10.1708,9.66C1745.0372,19.1067,1757.6315,8.663,1748.8394,2.6558Z" transform="translate(0 0.2831)" style="fill:#202020"/><path d="M1759.1788,19.9614c7.4131,1.354,10.5361-10.5053,3.2983-11.8081C1755.2183,6.8008,1751.8424,18.5918,1759.1788,19.9614Z" transform="translate(0 0.2831)" style="fill:#202020"/><line x1="1782.732" y1="17.4546" x2="1779.5681" y2="17.1953" style="fill:none"/><path d="M1783.5138,12.1216c-2.9852-.74-1.2721.0717-.0678,1.2951,5.7947,1.764-8.2367-7.8837-9.6865,2.1953C1773.7756,31.4891,1797.423,19.97,1783.5138,12.1216Z" transform="translate(0 0.2831)" style="fill:#202020"/><path d="M1802.1353,22.7363c7.52-.9355,7.1024-13.7232-.7578-12.7126C1794.2058,10.8013,1794.0668,24.0825,1802.1353,22.7363Z" transform="translate(0 0.2831)" style="fill:#202020"/><path d="M1818.7984,21.6685c8.1666-.5661,10.2161-16.17.4187-15.3785C1810.1805,6.06,1809.5242,22.097,1818.7984,21.6685Z" transform="translate(0 0.2831)" style="fill:#202020"/><path d="M1841.1607,14.2573c-1.0029-.3838-2.0371-.7031-3.0615-1.042" transform="translate(0 0.2831)" style="fill:none"/><path d="M1845.1724,9.6143c-6.0381-6.4327-17.2533-.5641-11.8233,7.695C1838.3838,24.832,1852.6181,17.1147,1845.1724,9.6143Z" transform="translate(0 0.2831)" style="fill:#202020"/><path d="M1851.0709,28.9248c6.498,3.2686,13.143-7.0474,6.4184-10.4434C1851.1407,15.0905,1844.3889,25.3878,1851.0709,28.9248Z" transform="translate(0 0.2831)" style="fill:#202020"/><path d="M1874.1676,33.2773c-.9869-.39-1.9512-.8217-2.9214-1.2436" transform="translate(0 0.2831)" style="fill:none"/><path d="M1876.5015,28.7236c1.07,4.5218-1.0313-8.15-10.3677.2573C1861.7,44.2647,1886.9348,40.8991,1876.5015,28.7236Z" transform="translate(0 0.2831)" style="fill:#202020"/><path d="M1891.7711,44.1826c7.8073,1.1981,9.6723-11.97,1.7765-12.5995C1886.4585,31.1718,1883.3409,43.9813,1891.7711,44.1826Z" transform="translate(0 0.2831)" style="fill:#202020"/></svg>