<svg xmlns="http://www.w3.org/2000/svg" class="soro-logo" viewBox="0 0 128.86 42"><text fill="#49a4d1" class="logo--byline" font-family="Lato-Regular,Lato" font-size="7" letter-spacing=".04199219em" transform="translate(43.88 40.47)">Better Cannabis Business</text><path fill="#49a4d1" d="M24.71 21.23A9.08 9.08 0 1132.89 5.1a25.2 25.2 0 00-13.51-5C9.23-.78.56 3.37 0 9.4c-.42 4.75 4.32 9.24 11.32 11.37A9.08 9.08 0 113.16 36.9a25.21 25.21 0 0013.51 5c10.15.91 18.82-3.25 19.35-9.27.43-4.77-4.32-9.26-11.31-11.4z" class="path-one"/><path fill="#245b79" d="M33 6.45c2.25 1.08 4.64 5.2-2.17 7.19s-8.83 5.8-7.55 6.91a10.19 10.19 0 01-2.86-8.24C21 8.88 25.48 2.85 33 6.45zM2.86 35.47C.62 34.39-1.78 30.27 5 28.28s8.78-5.81 7.53-6.92a10.19 10.19 0 012.86 8.24c-.52 3.4-5.03 9.47-12.53 5.87z" class="path-two"/><path fill="#49a4d1" d="M52.83 11.76c-3.18 0-5.66 1.22-5.66 3.92 0 6.09 13.23 3.09 13.23 11.1 0 4.22-3.79 6.09-7.88 6.09a12.07 12.07 0 01-8.31-3.13l.79-1.41a11.13 11.13 0 007.57 2.87c3.18 0 5.92-1.26 6-4.13.17-6.4-13.23-3.48-13.23-11.27 0-4 3.44-5.7 7.44-5.7a12.31 12.31 0 016.48 1.78l-.78 1.48a10.71 10.71 0 00-5.65-1.6zm33.63 9.7c0 6.7-4.7 11.4-11.18 11.4s-11.18-4.7-11.18-11.4S68.84 10.1 75.28 10.1s11.18 4.7 11.18 11.36zm-20.58 0c0 5.74 4 9.7 9.4 9.7s9.4-4 9.4-9.7-3.92-9.62-9.4-9.62-9.4 3.96-9.4 9.62zm37.47-11.36V12c-5 0-8 3.31-8.44 8.57v12.25h-1.83V10.15h1.82v5.7a8.69 8.69 0 018.45-5.75zm24.88 11.36c0 6.7-4.7 11.4-11.18 11.4s-11.18-4.7-11.18-11.4 4.74-11.36 11.18-11.36 11.18 4.7 11.18 11.36zm-20.58 0c0 5.74 4 9.7 9.4 9.7s9.4-4 9.4-9.7-3.92-9.62-9.4-9.62-9.4 3.96-9.4 9.62z" class="path-three"/></svg>